<?xml version="1.0" standalone="no"?>
<!DOCTYPE svg PUBLIC "-//W3C//DTD SVG 1.1//EN" "http://www.w3.org/Graphics/SVG/1.1/DTD/svg11.dtd" >
<!--
2013-9-30: Created.
-->
<svg>
<metadata>
Created by iconfont
</metadata>
<defs>

<font id="iconfont" horiz-adv-x="1024" >
  <font-face
    font-family="iconfont"
    font-weight="500"
    font-stretch="normal"
    units-per-em="1024"
    ascent="896"
    descent="-128"
  />
    <missing-glyph />
    
    <glyph glyph-name="x" unicode="x" horiz-adv-x="1001"
d="M281 543q-27 -1 -53 -1h-83q-18 0 -36.5 -6t-32.5 -18.5t-23 -32t-9 -45.5v-76h912v41q0 16 -0.5 30t-0.5 18q0 13 -5 29t-17 29.5t-31.5 22.5t-49.5 9h-133v-97h-438v97zM955 310v-52q0 -23 0.5 -52t0.5 -58t-10.5 -47.5t-26 -30t-33 -16t-31.5 -4.5q-14 -1 -29.5 -0.5
t-29.5 0.5h-32l-45 128h-439l-44 -128h-29h-34q-20 0 -45 1q-25 0 -41 9.5t-25.5 23t-13.5 29.5t-4 30v167h911zM163 247q-12 0 -21 -8.5t-9 -21.5t9 -21.5t21 -8.5q13 0 22 8.5t9 21.5t-9 21.5t-22 8.5zM316 123q-8 -26 -14 -48q-5 -19 -10.5 -37t-7.5 -25t-3 -15t1 -14.5
t9.5 -10.5t21.5 -4h37h67h81h80h64h36q23 0 34 12t2 38q-5 13 -9.5 30.5t-9.5 34.5q-5 19 -11 39h-368zM336 498v228q0 11 2.5 23t10 21.5t20.5 15.5t34 6h188q31 0 51.5 -14.5t20.5 -52.5v-227h-327z" />
    

    
    <glyph glyph-name="jinglingicon" unicode="&#59107;" d="M603.951104 545.388288c-19.37408 11.12064-31.37024 31.83616-31.32928 54.172672 0 0.037888 0 0.072704 0 0.109568 0 34.865152-28.26752 63.1296-63.130624 63.1296-34.864128 0-63.128576-28.264448-63.128576-63.1296 0-0.037888 0-0.072704 0-0.111616 0.038912-22.363136-11.932672-43.039744-31.327232-54.172672-140.555264-80.677888-59.790336-348.611584-206.655488-395.966464l0-62.580736 602.225664 0 0 62.580736C663.740416 196.777728 744.508416 464.7104 603.951104 545.388288zM509.4912 625.282816c14.125056 0 25.613312-11.487232 25.613312-25.611264 0-14.123008-11.488256-25.613312-25.613312-25.613312-14.118912 0-25.611264 11.490304-25.611264 25.613312C483.88096 613.793536 495.372288 625.282816 509.4912 625.282816zM309.008384 147.513088c64.917504 80.162816 59.631616 206.869504 92.459008 288.70656 17.866752 44.542976 49.67424 76.457984 108.023808 76.457984 57.73824 0 89.909248-31.291392 108.025856-76.457984 32.82944-81.8432 27.546624-208.548864 92.459008-288.70656L1034.515456 147.513088zM596.458496 34.688768c0-47.552512-38.547456-86.096896-86.099968-86.096896-47.54944 0-86.095872 38.545408-86.095872 86.096896L1036.25216 34.688768z"  horiz-adv-x="1024" />

    
    <glyph glyph-name="gongneng" unicode="&#59109;" d="M6.016 805.984l444.032 0 0-440.192-444.032 0 0 440.192ZM575.232 805.984 1017.984 805.984 1017.984 365.792 575.232 361.824ZM6.016 236.704l444.032 0 0-442.688-444.032 0 0 442.688ZM575.232 236.704l442.752 0 0-442.688-442.752 0 0 442.688Z"  horiz-adv-x="1024" />

    
    <glyph glyph-name="xiangyou" unicode="&#59110;" d="M512.248693 812c-281.771792 0-510.189844-228.378302-510.189844-510.083844 0-281.716753 228.417033-510.087921 510.189844-510.087921 281.751407 0 510.16844 228.371168 510.16844 510.087921C1022.417133 583.621698 794.0001 812 512.248693 812zM512.248693-115.418592c-230.536017 0-417.41221 186.847655-417.41221 417.335767 0 230.49117 186.876193 417.339844 417.41221 417.339844 230.524805 0 417.39896-186.848674 417.39896-417.339844C929.648672 71.428044 742.774517-115.418592 512.248693-115.418592zM349.910511 464.243127l139.138422 0 185.518576-162.329009L489.048933 139.586128 349.910511 139.586128l185.518576 162.329009L349.910511 464.243127z"  horiz-adv-x="1024" />

    
    <glyph glyph-name="icon21" unicode="&#59111;" d="M512.002558 811.465834c282.354739 0 511.457648-229.064023 511.457648-511.467881 0-282.403858-229.102908-511.463788-511.457648-511.463788-282.396695 0-511.463788 229.059929-511.463788 511.463788C0.537747 582.401812 229.605863 811.465834 512.002558 811.465834zM512.002558-97.805168c219.685421 0 397.796982 178.124863 397.796982 397.804145 0 219.691561-178.112584 397.807215-397.796982 397.807215S114.198413 519.690538 114.198413 299.997953C114.198413 80.319695 292.317137-97.805168 512.002558-97.805168zM284.675086 356.80782l454.654944 0c31.403221 0 56.808844-25.363667 56.808844-56.809867 0-31.404244-25.4046-56.808844-56.808844-56.808844l-454.654944 0c-31.404244 0-56.809867 25.4046-56.809867 56.808844C227.865219 331.444153 253.269819 356.80782 284.675086 356.80782z"  horiz-adv-x="1024" />

    
    <glyph glyph-name="iconfontleft2" unicode="&#59112;" d="M67.964 287.972c0-245.044 198.647-443.691 443.691-443.691s443.691 198.647 443.691 443.691S756.7 731.664 511.656 731.664 67.964 533.016 67.964 287.972zM150.151 287.971c0 199.252 161.526 360.777 360.777 360.777s360.777-161.524 360.777-360.776S710.181-72.805 510.928-72.805 150.151 88.719 150.151 287.971zM373.5 290.177c0.006 0.11 0.015 0.222 0.021 0.332 0.612 10.565 5.124 20.916 13.462 28.621l162.811 150.447c17.093 15.794 44 14.733 59.796-2.36 15.794-17.093 14.733-44-2.36-59.796L477.962 287.971 607.229 168.52c17.093-15.795 18.154-42.703 2.36-59.796-15.794-17.093-42.703-18.154-59.796-2.36l-162.81 150.448c-8.339 7.706-12.85 18.056-13.462 28.621-0.006 0.11-0.016 0.222-0.021 0.332-0.024 0.453-0.036 0.906-0.045 1.359-0.006 0.282-0.013 0.565-0.013 0.847 0 0.282 0.007 0.565 0.013 0.846C373.465 289.272 373.477 289.725 373.5 290.177z"  horiz-adv-x="1024" />

    
    <glyph glyph-name="msnui-service" unicode="&#59113;" d="M272.16 832.396c-115.182 0-208.556-93.374-208.556-208.556s93.374-208.556 208.556-208.556h208.556v208.556c0 115.182-93.374 208.556-208.556 208.556zM416.546 479.454h-144.385c-79.618 0-144.385 64.766-144.385 144.385s64.766 144.385 144.385 144.385 144.385-64.766 144.385-144.385v-144.385zM962 623.84c0 115.182-93.374 208.556-208.556 208.556s-208.556-93.374-208.556-208.556v-208.556h208.556c115.182 0 208.556 93.374 208.556 208.556zM609.058 623.84c0 79.618 64.766 144.385 144.385 144.385s144.385-64.766 144.385-144.385-64.766-144.385-144.385-144.385h-144.385v144.385zM63.604 142.556c0-115.182 93.374-208.556 208.556-208.556s208.556 93.374 208.556 208.556v208.556h-208.556c-115.182 0-208.556-93.374-208.556-208.556zM416.546 142.556c0-79.618-64.766-144.385-144.385-144.385s-144.385 64.766-144.385 144.385 64.766 144.385 144.385 144.385h144.385v-144.385zM753.444 351.113h-208.556v-208.556c0-115.182 93.374-208.556 208.556-208.556s208.556 93.374 208.556 208.556-93.374 208.556-208.556 208.556zM753.444-1.829c-79.618 0-144.385 64.766-144.385 144.385v144.385h144.385c79.618 0 144.385-64.766 144.385-144.385s-64.766-144.385-144.385-144.385z"  horiz-adv-x="1024" />

    
    <glyph glyph-name="msnui-forbid" unicode="&#59114;" d="M512.893 829.569q91.765 0 172.824-34.667t141.725-95.333 95.333-141.725 34.667-172.824-34.667-172.824-95.333-141.725-141.725-95.333-172.824-34.667-173.333 34.667-141.725 95.333-95.333 141.725-35.176 172.824 35.176 172.824 95.333 141.725 141.725 95.333 173.333 34.667zM707.638 321.804q29.569 0 49.451 18.353t19.882 46.902q0 29.569-19.882 45.882t-49.451 16.314h-390.51q-29.569 0-49.451-16.314t-19.882-45.882q0-28.549 19.882-46.902t49.451-18.353h390.51z"  horiz-adv-x="1024" />

    
    <glyph glyph-name="zhendong" unicode="&#59115;" d="M168-145.984l-80 99.968 257.536 206.016-320 256.064 382.464 305.92 80-99.968-257.536-205.952 320-256.064zM616-145.984l-80 99.968 257.536 206.016-320 256.064 382.464 305.92 80-99.968-257.536-205.952 320-256.064z"  horiz-adv-x="1024" />

    
    <glyph glyph-name="mainiconteam" unicode="&#59116;" d="M511.829108-130.66046c-238.401692 0-431.758468 193.357799-431.758468 430.66046S273.427416 730.66046 511.829108 730.66046c238.401692 0 431.758468-193.357799 431.758468-430.66046C943.587576 62.697339 750.229776-130.66046 511.829108-130.66046zM511.829108 665.841176c-201.047945 0-365.841176-163.695223-365.841176-364.743168 0-201.047945 163.695223-364.743168 365.841176-364.743168 201.047945 0 365.841176 163.695223 365.841176 364.743168C877.670284 502.146976 712.877053 665.841176 511.829108 665.841176zM509.632069 115.431378c-62.621223 0-123.046431 21.972431-142.820799 29.662577-62.621223 3.296069-113.158223 56.030108-113.158223 119.750361L253.653047 365.917292c0 65.917292 53.832046 119.750361 119.750361 119.750361l275.754415 0c65.917292 0 119.750361-53.832046 119.750361-119.750361l0-101.072977c0-63.720254-50.537-116.454292-113.158223-119.750361C637.071553 137.403808 573.3513 115.431378 509.632069 115.431378zM374.500393 419.750361c-29.662577 0-53.832046-24.169469-53.832046-53.832046l0-101.072977c0-29.662577 24.169469-53.832046 53.832046-53.832046l6.592139 0 6.592139-2.197038c1.099031 0 62.621223-26.366508 123.046431-26.366508 62.621223 0 126.341476 26.366508 127.440507 26.366508l6.592139 2.197038 6.592139 0c29.662577 0 53.832046 24.169469 53.832046 53.832046L705.187931 365.917292c0 29.662577-24.169469 53.832046-53.832046 53.832046L374.500393 419.749338zM705.617301-67.261211l-94.306406 232.046359 61.064831 24.817475 94.306406-232.046359-61.064831-24.817475ZM342.252921-71.379248l-61.480104 23.769407 91.115997 235.673572 61.480104-23.769407-91.115997-235.673572ZM917.221068 216.504354 726.060307 216.504354l0 65.917292 191.160761 0L917.221068 216.504354zM917.221068 360.424184 726.060307 360.424184l0 65.917292 191.160761 0L917.221068 360.424184zM304.189024 216.504354 113.028263 216.504354l0 65.917292 191.160761 0L304.189024 216.504354zM304.189024 360.424184 113.028263 360.424184l0 65.917292 191.160761 0L304.189024 360.424184z"  horiz-adv-x="1024" />

    
    <glyph glyph-name="tingchechang" unicode="&#59117;" d="M512.668 735.578c-246.798 0-447.576-200.772-447.576-447.575 0-246.803 200.779-447.582 447.576-447.582 246.796 0 447.575 200.779 447.575 447.582 0 246.803-200.779 447.575-447.575 447.575zM512.668-90.589c-208.763 0-378.599 169.837-378.599 378.592 0 208.763 169.836 378.599 378.599 378.599 208.748 0 378.586-169.836 378.586-378.599 0-208.754-169.838-378.592-378.586-378.592zM717.246 390.412c0-49.152-14.352-88.070-43.006-116.738-28.703-28.691-68.621-42.993-119.787-42.993h-89.077v-205.805h-70.653l0 525.261h159.73c51.166 0 91.084-14.358 119.787-43.005 28.655-28.691 43.006-67.58 43.006-116.719zM646.604 390.412c0 38.868-9.229 65.507-27.651 79.86-18.421 14.302-46.081 21.489-82.934 21.489h-70.644v-202.717h70.644c36.853 0 64.513 7.15 82.934 21.503 18.422 14.302 27.651 40.934 27.651 79.865z"  horiz-adv-x="1024" />

    
    <glyph glyph-name="zliconstop01" unicode="&#59118;" d="M874.037 650.021c-199.93 199.93-524.112 199.93-724.041 0-199.93-199.962-199.93-524.112 0-724.041 199.93-199.93 524.112-199.93 724.041 0 199.93 199.93 199.93 524.112 0 724.041zM853.525 239.986h-683.051c-13.248 0-25.247 5.376-33.951 14.048-8.672 8.672-14.048 20.671-14.048 33.951 0 26.527 21.471 47.998 47.999 47.998h683.051c26.527 0 47.999-21.471 47.999-47.998s-21.503-47.998-47.999-47.998z"  horiz-adv-x="1024" />

    
    <glyph glyph-name="erji" unicode="&#59119;" d="M158.334633 77.177122l-87.167269-11.038404c-1.086751 9.036817-36.604686 309.759903 120.598682 487.382323 66.319451 74.841545 166.813237 127.876436 318.640154 127.876436 156.37449 0 258.583336-54.250578 325.102333-130.49303 155.059542-177.894619 115.364471-475.67263 114.165156-484.309334l-86.9974 11.955286c0.342808 2.687202 35.06154 267.291672-93.400227 414.613996-58.856479 67.535139-143.562696 100.351546-258.870886 100.351546-111.618147 0-194.3238-32.144094-252.836449-98.219999-130.636293-147.566894-99.578949-415.31496-99.235119-417.832294L158.33361 77.177122M803.881209-79.99964 686.686043-79.99964 686.686043 242.131011l117.195166 0L803.881209-79.99964 803.881209-79.99964 803.881209-79.99964zM335.300091-79.99964 218.191906-79.99964 218.191906 242.131011 335.300091 242.131011 335.300091-79.99964 335.300091-79.99964 335.300091-79.99964z"  horiz-adv-x="1024" />

    
    <glyph glyph-name="zhinengerji" unicode="&#59120;" d="M285.272185-16.660056c0-35.984562-29.17139-65.154929-65.154929-65.154929l0 0c-35.984562 0-65.154929 29.17139-65.154929 65.154929L154.962328 169.497761c0 35.984562 29.17139 65.154929 65.154929 65.154929l0 0c35.984562 0 65.154929-29.17139 65.154929-65.154929L285.272185-16.660056zM870.682126-16.660056c0-35.984562-29.17139-65.154929-65.154929-65.154929l0 0c-35.984562 0-65.154929 29.17139-65.154929 65.154929L740.372268 169.497761c0 35.984562 29.17139 65.154929 65.154929 65.154929l0 0c35.984562 0 65.154929-29.17139 65.154929-65.154929L870.682126-16.660056zM130.306788 4.521359c0-18.263969-14.806217-33.070186-33.070186-33.070186l0 0c-18.263969 0-33.070186 14.806217-33.070186 33.070186L64.166415 148.317369c0 18.263969 14.806217 33.070186 33.070186 33.070186l0 0c18.263969 0 33.070186-14.806217 33.070186-33.070186L130.306788 4.521359zM957.463608 4.521359c0-18.263969-14.806217-33.070186-33.070186-33.070186l0 0c-18.263969 0-33.070186 14.806217-33.070186 33.070186L891.323235 148.317369c0 18.263969 14.806217 33.070186 33.070186 33.070186l0 0c18.263969 0 33.070186-14.806217 33.070186-33.070186L957.463608 4.521359zM511.25094 661.331465c-227.067552 0-411.855162-183.986361-413.432077-410.691663-0.118704-0.991584-0.582261-1.863441-0.582261-2.885723 0-13.857613 11.232832-25.090445 25.089421-25.090445 13.857613 0 25.090445 11.232832 25.090445 25.090445 0 0.610914-0.303922 1.122567-0.347924 1.723248 0.942465 200.060455 163.90193 362.54613 364.181373 362.54613 199.695135 0 362.213555-161.557536 364.094392-360.817766-0.169869-1.176802-0.696872-2.226714-0.696872-3.450589 0-13.857613 11.232832-25.090445 25.089421-25.090445 13.857613 0 25.090445 11.232832 25.090445 25.090445C924.828326 475.796842 739.293703 661.331465 511.25094 661.331465z"  horiz-adv-x="1024" />

    
    <glyph glyph-name="jiantou" unicode="&#59095;" d="M191.004707 273.546511l-76.099189-76.108399c-11.507078-11.488659-17.244756-26.543539-17.244756-41.621956 0-15.055904 5.737678-30.111808 17.244756-41.60763l117.708865-117.718075L350.342692-121.217391c22.961968-22.994714 60.233849-22.994714 83.207074 0 11.496845 11.486612 17.245779 26.553773 17.245779 41.61991l0.010233 0 0 31.942503 0 72.099085 0 13.665231L862.804203 38.109338c32.506345 0 58.845223 26.350135 58.845223 58.856479L921.649426 214.682869c0 32.496112-26.338878 58.863642-58.845223 58.863642l-10.105149 0-58.855456-58.863642 68.960605 0 0-117.718075L391.930879 96.964794l0-144.619772 0-31.942503L156.514171 155.816157l117.719098 117.730355L191.004707 273.546511 191.004707 273.546511zM668.998195 727.154613l117.717052-117.712959 117.709889-117.707842c11.495822-11.496845 17.22429-26.557866 17.22429-41.618886 0-15.062044-5.728468-30.133298-17.22429-41.61991L786.715247 290.770801 668.998195 173.062959c-22.992667-22.972201-60.256362-22.972201-83.238796 0-11.496845 11.486612-17.235546 26.551726-17.235546 41.61991l0 0 0 31.952736 0 72.089875 0 13.665231L156.514171 332.390711c-32.484855 0-58.854433 26.368554-58.854433 58.863642L97.659739 508.963219c0 32.506345 26.369577 58.859549 58.854433 58.859549l412.009681 0 0 13.680581 0 72.089875 0 31.942503 0 0c0 15.062044 5.737678 30.143531 17.235546 41.618886C608.741833 750.143187 646.005528 750.143187 668.998195 727.154613L668.998195 727.154613zM509.66021 273.546511l-58.854433 0-58.874899 0 0-58.863642 117.748774 0L509.66021 273.546511 509.66021 273.546511z"  horiz-adv-x="1024" />

    
    <glyph glyph-name="ceju" unicode="&#59121;" d="M353.801423 405.495063l131.846808-131.864169 52.740766 52.736681L406.542189 458.233786 353.801423 405.495063zM1013.074272 484.605191 696.605167 801.073274c-14.567946 14.568968-38.170777 14.568968-52.738723 0L10.928234 168.134043c-14.57101-14.549564-14.57101-38.167713 0-52.737702l316.468084-316.471147c14.566925-14.566925 38.205499-14.566925 52.776509 0l632.900424 632.940252C1027.644261 446.41501 1027.644261 470.035202 1013.074272 484.605191zM907.596826 431.864425 380.172827-95.576935c-14.572031-14.568968-38.209584-14.568968-52.77753 0L116.441424 115.396341c-14.569989 14.569989-14.569989 38.189159 0 52.737702l26.377532 26.378553 131.838639-131.856 52.737702 52.738723L195.557679 247.25132l52.738723 52.741787 105.506041-105.471319 52.740766 52.739745L301.034105 352.730809 499.723942 551.427794l-40.445072-40.456305L564.75938 405.493021l52.73566 52.738723-105.474383 105.493787 52.738723 52.740766 131.844766-131.864169 52.773445 52.737702L617.496061 669.203999l26.369362 26.370383c14.567946 14.568968 38.170777 14.568968 52.738723 0l210.991658-210.972255C922.166814 470.035202 922.166814 446.432371 907.596826 431.864425z"  horiz-adv-x="1025" />

    
    <glyph glyph-name="shouqi" unicode="&#59122;" d="M959.406354-57.97004 65.175907-57.97004 65.175907 829.199595l894.229424 0L959.405331-57.97004zM146.52875 23.382802l731.523739 0L878.052488 747.846752 146.52875 747.846752 146.52875 23.382802zM741.221609 473.01342l-229.853178-229.98324-57.541589 57.509048 229.853178 229.98324 57.541589-57.509048ZM568.87735 300.559982l-57.509048-57.541589-229.861645 229.731651 57.509048 57.541589 229.861645-229.731651Z"  horiz-adv-x="1024" />

    
    <glyph glyph-name="icjiashicang24px" unicode="&#59123;" d="M512-42.666667C276.352-42.666667 85.333333 148.352 85.333333 384S276.352 810.666667 512 810.666667s426.666667-191.018667 426.666667-426.666667S747.648-42.666667 512-42.666667zM558.208 46.165333c151.210667 20.522667 270.677333 139.776 291.541333 290.858667C836.864 339.072 824.106667 341.333333 810.666667 341.333333c-141.397333 0-256-114.602667-256-256C554.666667 71.936 556.202667 58.965333 558.208 46.165333zM512 298.666667c23.552 0 42.666667 19.114667 42.666667 42.666667s-19.114667 42.666667-42.666667 42.666667-42.666667-19.114667-42.666667-42.666667S488.448 298.666667 512 298.666667zM465.834667 46.165333C467.84 58.965333 469.333333 71.936 469.333333 85.333333c0 141.397333-114.602667 256-256 256-13.397333 0-26.325333-1.664-39.168-3.669333C194.773333 186.282667 314.410667 66.688 465.834667 46.165333zM512 725.333333c-174.037333 0-317.354667-130.346667-338.389333-298.666667l676.778667 0C829.354667 594.986667 686.037333 725.333333 512 725.333333z"  horiz-adv-x="1024" />

    
    <glyph glyph-name="shandian" unicode="&#59124;" d="M808.421047 438.583089 610.472074 438.583089 676.790005 871.852499 215.578953 305.269426 445.682069 305.269426 380.368958-127.999982 808.421047 438.583089Z"  horiz-adv-x="1024" />

    
    <glyph glyph-name="fabuxinxi" unicode="&#59125;" d="M715.167724 66.998159 209.044572 66.998159c-16.346293 0-29.573549 13.227256-29.573549 29.573549 0 16.346293 13.227256 29.572526 29.573549 29.572526l506.123153 0c16.346293 0 29.572526-13.227256 29.572526-29.572526C744.74025 80.224392 731.514017 66.998159 715.167724 66.998159zM770.125407-86.065935 154.027537-86.065935c-48.923246 0-88.719624 39.797401-88.719624 88.719624L65.307913 765.347335c0 48.923246 39.797401 88.719624 88.719624 88.719624l417.143609 0c16.346293 0 29.572526-13.227256 29.572526-29.572526 0-16.346293-13.227256-29.573549-29.572526-29.573549L154.027537 794.920884c-16.317641 0-29.573549-13.255908-29.573549-29.573549l0-762.693646c0-16.317641 13.255908-29.572526 29.573549-29.572526l616.09787 0c16.317641 0 29.572526 13.254885 29.572526 29.572526L799.697933 238.083699c0 16.346293 13.229303 29.572526 29.573549 29.572526 16.347317 0 29.572526-13.227256 29.572526-29.572526l0-235.43001C858.845031-46.269557 819.049676-86.065935 770.125407-86.065935zM393.933489 214.517981c-7.826246 0-15.595186 3.146667-21.140483 8.691963-10.04989 10.04989-10.04989 10.04989-4.043083 82.685187l6.439666 76.878948c3.234671 39.073924 27.522844 91.462085 55.276954 119.216195l282.9677 282.995329c33.355689 33.327036 92.0116 33.415041 125.455293 0.029676l95.708805-95.766111c34.597983-34.597983 34.597983-90.856287 0-125.455293L651.60199 280.854828c-27.753087-27.753087-80.141248-52.04126-119.216195-55.304583l-76.878948-6.383384C418.452929 216.077499 397.745305 214.517981 393.933489 214.517981zM776.16189 751.745549c-7.941879 0-15.364943-3.060709-20.909216-8.578376l-282.9677-282.995329c-18.194384-18.225083-36.042891-56.662511-38.150902-82.308611L427.694407 300.985308c-0.722454-8.894577-1.415232-17.358343-2.022053-24.923646 7.567349 0.606821 16.029068 1.300622 24.923646 2.050706l76.878948 6.381337c25.6461 2.137687 64.084551 19.98517 82.308611 38.180578l282.996352 282.939047c11.524474 11.522428 11.524474 30.29498 0 41.818431l-95.767134 95.794763C791.526833 748.68484 784.10377 751.745549 776.16189 751.745549z"  horiz-adv-x="1024" />

    
    <glyph glyph-name="xianluxinxi" unicode="&#59126;" d="M638.839436 635.354328C447.856765 922.772843 96.115671 857.649833 96.115671 857.649833L32.017212 857.649833 32.081247-95.982834 160.21413-95.9188 160.21413 349.088433C219.381938 391.767377 313.896749 433.325719 434.409536 382.930627 823.418665 213.463522 993.173924 597.061742 993.173924 597.061742 993.173924 597.061742 738.605069 509.014409 638.839436 635.354328L638.839436 635.354328Z"  horiz-adv-x="1026" />

    
    <glyph glyph-name="tongji" unicode="&#59127;" d="M30.6099 300.538597l490.099264-178.444126L1056.723278 663.289771l94.420292-88.898239L1233.360807 896l-326.823741-91.352485 94.420292-88.864152-500.73433-505.540561L57.742951 371.336773c-20.008921 7.294564-42.369828-2.62468-49.834826-22.190473C0.374954 329.614593 10.566892 307.867248 30.6099 300.538597zM0-126.568357l276.613961 0 0 243.515729L0 217.639626 0-126.568357zM327.98269 98.19966l0-224.768017 276.613961 0 0 206.49752-59.992677-60.572151L327.98269 98.19966zM655.999467-126.568357l276.613961 0L932.613428 411.081921l-276.613961-279.272727L655.999467-126.568357zM1058.973004 538.66862l-74.956759-75.706668 0-589.564395 276.579874 0L1260.596119 321.808728 1058.973004 538.66862z"  horiz-adv-x="1261" />

    
    <glyph glyph-name="close_cricle" unicode="&#59128;" d="M679.453 512.367c-0.409 10.153-4.201 20.196-11.954 27.949-7.752 7.749-17.768 11.517-27.948 11.954-11.301 0.437-22.709-3.331-31.336-11.954l-96.1-96.127-96.101 96.127c-8.625 8.623-20.034 12.391-31.334 11.954-10.152-0.437-20.196-4.205-27.949-11.954-7.753-7.752-11.545-17.795-11.954-27.949-0.465-11.299 3.328-22.708 11.954-31.334l96.1-96.127-96.1-96.074c-8.626-8.625-12.419-20.034-11.954-31.334 0.409-10.152 4.202-20.196 11.954-27.949 7.752-7.752 17.795-11.573 27.949-11.956 11.299-0.49 22.708 3.331 31.334 11.956l96.101 96.073 96.1-96.073c8.626-8.625 20.034-12.445 31.336-11.956 10.179 0.384 20.195 4.204 27.948 11.956 7.753 7.752 11.544 17.796 11.954 27.949 0.464 11.299-3.328 22.708-11.954 31.334l-96.1 96.074 96.1 96.127c8.626 8.625 12.418 20.034 11.954 31.334zM512.116 832.083c-246.953 0-447.179-200.227-447.179-447.179 0-246.953 200.225-447.178 447.179-447.178 246.953 0 447.179 200.224 447.179 447.178 0 246.951-200.225 447.179-447.179 447.179zM512.116 21.573c-200.334 0-363.332 162.996-363.332 363.333 0 200.334 162.999 363.333 363.332 363.333s363.333-162.999 363.333-363.333c0-200.337-162.999-363.333-363.333-363.333z"  horiz-adv-x="1024" />

    
    <glyph glyph-name="iconfontsuotou" unicode="&#59129;" d="M758-57.3 272.2-57.3c-67.1 0-121.4 53.4-121.4 119.4L150.8 479.9l121.4 0 0 89.5C272.2 717.8 381 838 515.1 838S758 717.8 758 569.4l0-89.5 121.4 0 0-417.8C879.5-3.9 825.1-57.3 758-57.3zM697.3 569.4c0 117.1-76.3 208.9-182.2 208.9s-182.2-91.8-182.2-208.9l0-89.5 364.4 0L697.3 569.4zM818.8 420.2 211.5 420.2l0-298.4c0-65.9 54.4-119.4 121.4-119.4l364.4 0c67.1 0 121.4 53.4 121.4 119.4L818.7 420.2zM534 91.7l-37.7 0c-23 0-41.6 18.7-41.6 41.6L454.7 288.8c0 23 18.6 41.6 41.6 41.6l37.7 0c23 0 41.6-18.6 41.6-41.6l0-155.5C575.6 110.3 557 91.7 534 91.7z"  horiz-adv-x="1024" />

    
    <glyph glyph-name="xiangyou2" unicode="&#59259;" d="M512-64c-247.039484 0-448 200.960516-448 448S264.960516 832 512 832 960 631.039484 960 384 759.039484-64 512-64zM512 768c-211.744443 0-384-172.255557-384-384s172.255557-384 384-384 384 172.255557 384 384S723.744443 768 512 768zM732.959548 394.847574c-0.032684 0.127295-0.192662 0.25631-0.25631 0.383604-1.536138 3.615858-3.648542 7.071738-6.591802 10.047682-0.032684 0.032684-0.063647 0.032684-0.096331 0.063647-0.032684 0.032684-0.032684 0.063647-0.063647 0.096331l-158.911974 159.359226c-12.480043 12.480043-32.704421 12.576374-45.248112 0.063647-12.512727-12.480043-12.54369-32.735385-0.063647-45.248112l103.328907-103.616181L320 415.99742c-17.664722 0-31.99914-14.336138-31.99914-32.00086s14.336138-32.00086 31.99914-32.00086l306.752748 0-106.112189-104.959656c-12.576374-12.447359-12.672705-32.671738-0.25631-45.248112 6.239161-6.335493 14.496116-9.504099 22.751351-9.504099 8.12794 0 16.25588 3.103239 22.496761 9.247789l160.25545 158.495686C735.328262 369.407553 737.72794 383.232791 732.959548 394.847574z"  horiz-adv-x="1024" />

    
    <glyph glyph-name="xiangyou3" unicode="&#59260;" d="M512-64c-247.039484 0-448 200.960516-448 448S264.960516 832 512 832 960 631.039484 960 384 759.039484-64 512-64zM512 768c-211.744443 0-384-172.255557-384-384s172.255557-384 384-384 384 172.255557 384 384S723.744443 768 512 768zM668.832254 394.847574c-0.032684 0.127295-0.192662 0.25631-0.25631 0.383604-1.536138 3.615858-3.648542 7.071738-6.591802 10.047682-0.032684 0.032684-0.063647 0.032684-0.096331 0.063647-0.032684 0.032684-0.032684 0.063647-0.063647 0.096331l-158.911974 159.359226c-12.480043 12.512727-32.735385 12.576374-45.248112 0.063647-12.512727-12.480043-12.54369-32.735385-0.063647-45.248112l136.287918-136.671523-137.407768-135.904314c-12.576374-12.447359-12.672705-32.671738-0.25631-45.248112 6.239161-6.335493 14.496116-9.504099 22.751351-9.504099 8.12794 0 16.25588 3.103239 22.496761 9.247789l160.25545 158.495686C671.231931 369.407553 673.600645 383.232791 668.832254 394.847574z"  horiz-adv-x="1024" />

    
    <glyph glyph-name="shezhi1" unicode="&#59130;" d="M990.126 504.693l-79.272-46.152c4.446-24.238 7.363-48.998 7.363-74.547 0-25.545-2.916-50.305-7.361-74.539l79.272-46.148c32.381-18.85 43.477-60.604 24.781-93.254l-67.701-118.243c-18.694-32.647-60.103-43.833-92.486-24.988l-80.085 46.627c-37.419-32.119-79.954-58.368-127.23-75.244v-57.938c0-37.704-30.312-68.268-67.703-68.268h-135.406c-37.39 0-67.703 30.566-67.703 68.268v57.938c-47.276 16.878-89.811 43.127-127.23 75.244l-80.085-46.627c-32.383-18.848-73.789-7.662-92.482 24.988l-67.709 118.245c-18.694 32.647-7.6 74.402 24.781 93.254l79.272 46.148c-4.444 24.232-7.361 48.994-7.361 74.539 0 25.549 2.916 50.309 7.361 74.549l-79.272 46.148c-32.381 18.85-43.475 60.604-24.781 93.254l67.707 118.239c18.692 32.653 60.099 43.844 92.482 24.99l80.087-46.623c37.419 32.121 79.954 58.368 127.228 75.244l0 57.934c0 37.704 30.312 68.27 67.703 68.27h135.406c37.39 0 67.703-30.566 67.703-68.27v-57.934c47.274-16.878 89.809-43.123 127.228-75.244l80.087 46.623c32.383 18.854 73.791 7.664 92.486-24.99l67.701-118.239c18.696-32.647 7.6-74.404-24.781-93.254zM939.352 593.371l-33.851 59.124c-9.347 16.323-30.052 21.92-46.242 12.497l-94.054-54.759c-47.741 54.301-112.257 93.254-185.5 108.249v75.123c0 18.85-15.155 34.126-33.851 34.126h-67.705c-18.696 0-33.851-15.276-33.851-34.126v-75.123c-73.243-14.995-137.759-53.948-185.5-108.249l-94.054 54.759c-16.189 9.423-36.893 3.826-46.242-12.497l-33.851-59.124c-9.347-16.323-3.799-37.202 12.39-46.627l94.431-54.972c-11.25-33.958-17.986-69.997-17.986-107.778 0-37.773 6.734-73.812 17.983-107.768l-94.431-54.977c-16.189-9.427-21.737-30.302-12.39-46.627l33.851-59.118c9.349-16.331 30.052-21.924 46.242-12.493l94.050 54.755c47.743-54.301 112.259-93.254 185.504-108.245v-75.129c0-18.848 15.155-34.126 33.851-34.126h67.705c18.696 0 33.851 15.28 33.851 34.126v75.129c73.245 14.993 137.761 53.946 185.502 108.245l94.052-54.755c16.189-9.429 36.895-3.838 46.242 12.493l33.851 59.118c9.347 16.325 3.799 37.2-12.39 46.627l-94.431 54.977c11.25 33.954 17.983 69.994 17.983 107.768 0 37.779-6.734 73.816-17.983 107.774l94.431 54.974c16.191 9.427 21.737 30.306 12.392 46.629zM512.002 213.338c-93.479 0-169.257 76.409-169.257 170.658 0 94.259 75.778 170.674 169.257 170.674 93.477 0 169.257-76.415 169.257-170.674-0.002-94.251-75.78-170.658-169.257-170.658zM512.002 486.398c-56.089 0-101.554-45.844-101.554-102.402 0-56.549 45.468-102.39 101.554-102.39 56.084 0 101.552 45.838 101.552 102.39-0 56.558-45.468 102.402-101.552 102.402z"  horiz-adv-x="1024" />

    
    <glyph glyph-name="ditu" unicode="&#59131;" d="M512.66 831.979c-150.944 0-256.797-104.943-256.797-255.843 0-142.524 38.324-292.391 202.795-456.861 32.139-32.139 54.002-54.824 54.002-54.824s21.868 21.047 55.644 54.824c164.47 164.47 199.244 300.206 199.244 456.861 0 150.901-103.978 255.843-254.888 255.843zM523.077 164.503c-3.325-3.325-6.534-6.527-9.619-9.598-3.073 3.088-6.269 6.292-9.572 9.597-70.794 70.794-119.487 141.14-148.862 215.055-24.014 60.427-35.199 122.892-35.199 196.58 0 56.585 18.308 104.707 52.944 139.166 34.666 34.487 83.039 52.717 139.892 52.717 56.581 0 104.538-18.147 138.688-52.479 34.175-34.359 52.24-82.563 52.24-139.403-0.001-142.69-30.197-261.322-180.511-411.634zM511.706 704.057c-70.649 0-127.921-57.272-127.921-127.921s57.272-127.921 127.921-127.921 127.921 57.272 127.921 127.921-57.272 127.921-127.921 127.921zM511.706 512.176c-35.325 0-63.961 28.636-63.961 63.961s28.636 63.961 63.961 63.961c35.325 0 63.961-28.636 63.961-63.961s-28.636-63.961-63.961-63.961zM959.426-24.402l0.004-0.001 0.001 4.027-64.444 256.54c-2.281 11.499-12.423 20.169-24.592 20.169l-141.733 0c-13.848 0-25.075-11.227-25.075-25.075v-13.811c0-13.848 11.227-25.075 25.075-25.075h102.362l48.095-191.882-734.829-0 48.095 191.882h102.362c13.848 0 25.075 11.227 25.075 25.075v13.811c0 13.848-11.227 25.075-25.075 25.075l-141.732 0c-12.169 0-22.311-8.67-24.592-20.169v0l-64.444-256.54v-3.333l0.023 0.007c-0.010-0.294-0.023-0.586-0.023-0.882v-13.811c0-13.848 11.227-25.075 25.075-25.075h845.299c13.848 0 25.075 11.227 25.075 25.075v13.811c-0 0.060-0.004 0.121-0.004 0.182z"  horiz-adv-x="1024" />

    
    <glyph glyph-name="msnui-operate" unicode="&#59271;" d="M121.22 845.28v0 0 0zM121.22 845.28zM375.74 611.1c0 83.34-70.2 150.96-156.9 150.96-86.58-0.060-156.84-67.62-156.84-150.96 0-40.56 16.68-77.4 43.74-104.58-7.38-29.76-11.22-60.72-11.22-92.64 0-143.52 78.54-269.46 196.5-340.020l31.38 123.96c-64.080 51.72-104.88 129.24-104.88 216 0 15.78 1.32 31.26 3.96 46.26 85.5 1.44 154.26 68.46 154.26 151.020v0 0 0zM510.32 695.4c54.24 0 104.94-14.16 148.56-38.94-6.9-16.98-10.56-35.4-10.56-54.66 0-83.4 70.2-150.96 156.78-150.96s156.9 67.62 156.9 150.96c0 83.34-70.32 150.96-156.9 150.96-20.28 0-39.72-3.72-57.42-10.44-67.38 45.12-149.040 71.58-237.36 71.58-59.76 0-116.58-12.18-167.94-34.020l71.7-100.020c30.12 10.080 62.52 15.54 96.24 15.54v0 0 0zM802.64 401.22c-4.68-102.6-66.54-190.98-155.64-236.4-25.92 48.9-78.78 82.38-139.74 82.38-86.7 0-156.9-67.62-156.9-150.96s70.2-151.020 156.9-151.020c64.98 0 120.9 38.1 144.54 92.34 159.96 55.74 274.2 203.22 274.2 376.26 0 8.88-0.36 17.64-0.96 26.34l-122.4-38.94zM802.64 401.22zM121.22 845.28v0 0 0zM121.22 845.28zM375.74 611.1c0 83.34-70.2 150.96-156.9 150.96-86.58-0.060-156.84-67.62-156.84-150.96 0-40.56 16.68-77.4 43.74-104.58-7.38-29.76-11.22-60.72-11.22-92.64 0-143.52 78.54-269.46 196.5-340.020l31.38 123.96c-64.080 51.72-104.88 129.24-104.88 216 0 15.78 1.32 31.26 3.96 46.26 85.5 1.44 154.26 68.46 154.26 151.020v0 0 0zM510.32 695.4c54.24 0 104.94-14.16 148.56-38.94-6.9-16.98-10.56-35.4-10.56-54.66 0-83.4 70.2-150.96 156.78-150.96s156.9 67.62 156.9 150.96c0 83.34-70.32 150.96-156.9 150.96-20.28 0-39.72-3.72-57.42-10.44-67.38 45.12-149.040 71.58-237.36 71.58-59.76 0-116.58-12.18-167.94-34.020l71.7-100.020c30.12 10.080 62.52 15.54 96.24 15.54v0 0 0zM802.64 401.22c-4.68-102.6-66.54-190.98-155.64-236.4-25.92 48.9-78.78 82.38-139.74 82.38-86.7 0-156.9-67.62-156.9-150.96s70.2-151.020 156.9-151.020c64.98 0 120.9 38.1 144.54 92.34 159.96 55.74 274.2 203.22 274.2 376.26 0 8.88-0.36 17.64-0.96 26.34l-122.4-38.94zM802.64 401.22zM121.22 845.28v0 0 0zM121.22 845.28zM375.74 611.1c0 83.34-70.2 150.96-156.9 150.96-86.58-0.060-156.84-67.62-156.84-150.96 0-40.56 16.68-77.4 43.74-104.58-7.38-29.76-11.22-60.72-11.22-92.64 0-143.52 78.54-269.46 196.5-340.020l31.38 123.96c-64.080 51.72-104.88 129.24-104.88 216 0 15.78 1.32 31.26 3.96 46.26 85.5 1.44 154.26 68.46 154.26 151.020v0 0 0zM510.32 695.4c54.24 0 104.94-14.16 148.56-38.94-6.9-16.98-10.56-35.4-10.56-54.66 0-83.4 70.2-150.96 156.78-150.96s156.9 67.62 156.9 150.96c0 83.34-70.32 150.96-156.9 150.96-20.28 0-39.72-3.72-57.42-10.44-67.38 45.12-149.040 71.58-237.36 71.58-59.76 0-116.58-12.18-167.94-34.020l71.7-100.020c30.12 10.080 62.52 15.54 96.24 15.54v0 0 0zM802.64 401.22c-4.68-102.6-66.54-190.98-155.64-236.4-25.92 48.9-78.78 82.38-139.74 82.38-86.7 0-156.9-67.62-156.9-150.96s70.2-151.020 156.9-151.020c64.98 0 120.9 38.1 144.54 92.34 159.96 55.74 274.2 203.22 274.2 376.26 0 8.88-0.36 17.64-0.96 26.34l-122.4-38.94zM802.64 401.22z"  horiz-adv-x="1024" />

    
    <glyph glyph-name="jilu" unicode="&#59132;" d="M947.177334 475.145883c-5.836939 28.492938-14.550391 56.626695-25.975605 83.667561-11.203156 26.418696-25.007557 51.882648-41.079604 75.659167-15.989159 23.651676-34.274618 45.837978-54.385655 65.921385-20.083407 20.097734-42.269709 38.396495-65.921385 54.385655-23.763217 16.058744-49.212842 29.876448-75.686796 41.09393-26.998911 11.410887-55.132668 20.138666-83.597977 25.934672-58.618049 12.033058-121.081683 12.019755-179.520653 0.014326-28.452006-5.794983-56.599066-14.522762-83.695191-25.962302-26.418696-11.189853-51.868321-25.007557-75.67247-41.079604-23.568788-15.933901-45.740764-34.233686-65.893756-54.385655-12.434194-12.434194-23.861454-25.845645-34.757618-39.667441L160.990624 774.227586c0 11.124362-9.020444 20.140713-20.142759 20.140713l-14.294564 0c-11.127432 0-20.143783-9.016351-20.143783-20.140713l0-150.538575c0-2.326998 0.415462-4.552689 1.140986-6.632047-0.727571-2.098801-1.140986-4.342912-1.140986-6.689353l0-13.644765c0-11.302417 9.163707-20.469194 20.469194-20.469194l167.214373 0c11.30344 0 20.469194 9.166777 20.469194 20.469194l0 13.644765c0 11.307533-9.163707 20.472264-20.469194 20.472264l-84.791152 0c8.359388 10.251481 17.161868 20.148899 26.503631 29.497824 17.60803 17.60803 36.972053 33.582863 57.553811 47.497781 20.775162 14.025435 42.989093 26.086122 66.031902 35.83823 23.596418 9.972119 48.134277 17.5804 72.976058 22.642696 51.010791 10.484795 105.646132 10.498098 156.795069-0.014326 24.841781-5.062296 49.378617-12.669554 72.9208-22.615067 23.071462-9.765411 45.284369-21.826098 66.031902-35.851533 20.637016-13.95585 40.028669-29.931706 57.567113-47.512107 17.566074-17.538445 33.527604-36.902468 47.497781-57.567113 14.025435-20.760836 26.086122-42.974767 35.851533-66.018599 9.931187-23.568788 17.566074-48.119951 22.655999-72.934103 5.228071-25.712615 7.883551-52.103682 7.883551-78.452793 0-26.321482-2.65548-52.712549-7.883551-78.384231-5.089925-24.814152-12.724813-49.378617-22.655999-72.948429-9.765411-23.016203-21.826098-45.229111-35.879162-66.031902-13.942547-20.664645-29.904077-40.028669-47.497781-57.567113-17.510816-17.566074-36.874839-33.555234-57.539484-47.52541-20.719904-13.970176-42.933835-26.030863-66.004273-35.823903-23.51353-9.931187-48.051389-17.566074-72.9208-22.683628-51.315736-10.429537-105.72902-10.429537-156.809395 0-24.89704 5.117554-49.448202 12.752442-72.961732 22.683628-23.099091 9.79304-45.326325 21.826098-66.046229 35.823903-20.609387 13.942547-39.97341 29.931706-57.567113 47.52541-17.60803 17.593703-33.582863 36.957727-47.497781 57.567113-14.025435 20.747533-26.086122 42.961464-35.83823 66.004273-9.94449 23.568788-17.566074 48.134277-22.642696 73.003687-5.242398 25.533536-7.897877 51.895951-7.897877 78.356602 0 15.643282-12.68388 28.327162-28.327162 28.327162s-28.327162-12.68388-28.327162-28.327162c0-30.305213 3.043313-60.485583 9.046027-89.725534 5.822612-28.492938 14.550391-56.654324 25.962302-83.681888 11.203156-26.446325 25.021883-51.895951 41.066301-75.659167 15.933901-23.596418 34.233686-45.782719 54.385655-65.921385 20.138666-20.138666 42.324968-38.451754 65.921385-54.413284 23.74889-16.016789 49.212842-29.848819 75.686796-41.051975 26.957978-11.397584 55.091736-20.138666 83.667561-26.003234 29.337165-5.975085 59.531861-9.018398 89.753163-9.018398 30.18037 0 60.389392 3.043313 89.795119 9.018398 28.548196 5.892197 56.681954 14.634302 83.597977 26.003234 26.473955 11.203156 51.92358 25.035186 75.659167 41.079604 23.680329 15.989159 45.865607 34.274618 65.921385 54.358025 20.111037 20.083407 38.396495 42.269709 54.358025 65.949015 16.099676 23.790846 29.931706 49.240471 41.107233 75.686796 11.425214 27.02654 20.138666 55.160297 25.975605 83.654258 6.002714 29.433356 9.046027 59.614749 9.046027 89.725534C956.223361 415.490202 953.181071 445.698201 947.177334 475.145883zM510.744403 299.059446l104.295368 0c23.811312 0 43.13031 19.321044 43.13031 43.168172 0 23.813359-19.318998 43.134403-43.13031 43.134403l-61.142545 0L553.897226 540.877957c0 23.847128-19.317974 43.168172-43.163055 43.168172-23.811312 0-43.13031-19.321044-43.13031-43.168172l0-197.798948c0-0.105401 0.030699-0.202615 0.030699-0.305969-0.002047-0.186242-0.055259-0.358157-0.055259-0.544399C467.579301 318.38049 486.898299 299.059446 510.744403 299.059446z"  horiz-adv-x="1024" />

    
    <glyph glyph-name="yonghu" unicode="&#59096;" d="M502.496 832.864c125.888 0 227.936-100.384 227.936-224.192 0-123.84-102.048-224.224-227.936-224.224-125.888 0-227.936 100.384-227.936 224.224C274.56 732.512 376.64 832.864 502.496 832.864L502.496 832.864zM502.496 832.864c125.888 0 227.936-100.384 227.936-224.192 0-123.84-102.048-224.224-227.936-224.224-125.888 0-227.936 100.384-227.936 224.224C274.56 732.512 376.64 832.864 502.496 832.864L502.496 832.864zM417.024 309.696l189.984 0c162.624 0 294.432-129.632 294.432-289.6l0-18.656c0-63.04-131.84-65.44-294.432-65.44l-189.984 0c-162.624 0-294.432 0.096-294.432 65.44l0 18.656C122.592 180.064 254.4 309.696 417.024 309.696L417.024 309.696zM417.024 309.696"  horiz-adv-x="1024" />

    
    <glyph glyph-name="yichesousuo" unicode="&#58880;" d="M573.764 108.747 349.992 108.747l0 17.975c0 46.82-38.12 85.025-85.067 85.025-46.875 0-85.025-38.205-85.025-85.025l0-17.975L59.03 108.747c-32.572 0-59.03 26.53-59.03 59.04L0 703.103c0 32.502 26.457 58.992 59.03 58.992l514.734 0c32.54 0 59.065-26.49 59.065-58.992l0-535.316C632.828 135.277 606.303 108.747 573.764 108.747L573.764 108.747zM384.449 144.567l189.315 0c12.86 0 23.285 10.425 23.285 23.22L597.049 703.103c0 12.842-10.43 23.267-23.285 23.267L59.03 726.37c-12.795 0-23.28-10.425-23.28-23.267l0-535.316c0-12.795 10.482-23.22 23.28-23.22l86.4 0c8.62 58.135 58.997 102.905 119.495 102.905C325.484 247.472 375.747 202.702 384.449 144.567L384.449 144.567zM964.938 108.747l-79.625 0 0 17.975c0 46.82-38.215 85.025-85.07 85.025-46.965 0-85.055-38.205-85.055-85.025l0-17.975-59.09 0c-32.5 0-59.05 26.53-59.05 59.04L597.048 558.953c0 32.655 26.55 59.055 59.05 59.055l175.03 0c9.02 0 23.33-3.737 54.03-32.775 18-16.957 39.34-40.477 60.22-66.202 20.785-25.697 39.77-52.067 53.42-74.21 22.57-36.55 25.2-52.18 25.2-60.865l0-216.169C1023.997 135.277 997.507 108.747 964.938 108.747L964.938 108.747zM919.738 144.567l45.2 0c12.83 0 23.31 10.425 23.31 23.22L988.248 383.956c0 0.46-0.22 9.942-18.8 40.352-12.23 20.145-29.615 44.4-48.815 68.377-19.075 23.977-38.885 46.12-55.81 62.552-23.27 22.662-32.725 26.557-34.43 27.077L656.098 582.314c-12.82 0-23.27-10.55-23.27-23.365l0-391.169c0-12.79 10.45-23.215 23.27-23.215l24.65 0c8.65 58.135 58.935 102.905 119.495 102.905C860.718 247.472 911.038 202.702 919.738 144.567L919.738 144.567zM1023.997 335.237 779.703 335.237c-32.655 0-59.085 26.455-59.085 58.997l0 82.357c0 32.565 26.43 59.055 59.085 59.055l151.875 0 5.37-6.315c14.6-17.537 87.05-106.465 87.05-145.375L1023.998 335.237 1023.997 335.237zM779.703 499.924c-12.91 0-23.43-10.457-23.43-23.332l0-82.357c0-12.762 10.52-23.247 23.43-23.247l208.544 0 0 12.97c0 0.525-0.22 11.222-22.69 46.577-13.435 21.125-31.285 45.565-50.75 69.39L779.703 499.925 779.703 499.924zM800.243 5.912c-66.63 0-120.865 54.11-120.865 120.81 0 66.545 54.235 120.75 120.865 120.75 66.635 0 120.785-54.205 120.785-120.75C921.028 60.022 866.878 5.912 800.243 5.912L800.243 5.912zM800.243 211.747c-46.965 0-85.055-38.205-85.055-85.025 0-46.94 38.09-85.15 85.055-85.15 46.855 0 85.07 38.21 85.07 85.15C885.313 173.542 847.098 211.747 800.243 211.747L800.243 211.747zM264.924 5.912c-66.632 0-120.805 54.11-120.805 120.81 0 66.545 54.172 120.75 120.805 120.75 66.662 0 120.785-54.205 120.785-120.75C385.709 60.022 331.587 5.912 264.924 5.912L264.924 5.912zM264.924 211.747c-46.907 0-85.025-38.205-85.025-85.025 0-46.94 38.15-85.15 85.025-85.15 46.947 0 85.067 38.21 85.067 85.15C349.992 173.542 311.872 211.747 264.924 211.747L264.924 211.747z"  horiz-adv-x="1025" />

    
    <glyph glyph-name="yihuchaxun" unicode="&#58881;" d="M947.288 409.606 486.394 409.606 486.394 819.29c0 28.28-22.927 51.21-51.212 51.21L76.71 870.5c-28.282 0-51.21-22.927-51.21-51.21l0-921.788 409.276 0 51.617 0 512.104 0L998.497 358.396C998.497 386.679 975.568 409.606 947.288 409.606zM76.71-51.288 76.71 819.29l358.474 0 0-456.869c-0.11-1.35-0.408-2.645-0.408-4.025l0-409.684L76.71-51.288zM947.288-51.288 486.394-51.288 486.394 358.396l460.894 0L947.288-51.288zM588.779 229.692l76.82 0c14.14 0 25.605 11.46 25.605 25.6 0 14.145-11.465 25.61-25.605 25.61l-76.82 0c-14.14 0-25.6-11.465-25.6-25.61C563.179 241.152 574.639 229.692 588.779 229.692zM768.038 229.692l76.82 0c14.14 0 25.6 11.46 25.6 25.6 0 14.145-11.46 25.61-25.6 25.61l-76.82 0c-14.14 0-25.605-11.465-25.605-25.61C742.433 241.152 753.898 229.692 768.038 229.692zM588.779 127.257l76.82 0c14.14 0 25.605 11.465 25.605 25.605s-11.465 25.605-25.605 25.605l-76.82 0c-14.14 0-25.6-11.465-25.6-25.605S574.639 127.257 588.779 127.257zM768.038 127.257l76.82 0c14.14 0 25.6 11.465 25.6 25.605s-11.46 25.605-25.6 25.605l-76.82 0c-14.14 0-25.605-11.465-25.605-25.605S753.898 127.257 768.038 127.257zM665.598 76.277l-76.82 0c-14.14 0-25.6-11.465-25.6-25.605 0-14.14 11.46-25.605 25.6-25.605l76.82 0c14.14 0 25.6 11.465 25.6 25.605C691.203 64.812 679.738 76.277 665.598 76.277zM768.038 25.067l76.82 0c14.14 0 25.6 11.465 25.6 25.605 0 14.14-11.46 25.605-25.6 25.605l-76.82 0c-14.14 0-25.605-11.465-25.605-25.605C742.433 36.532 753.898 25.067 768.038 25.067zM358.367 767.43 153.525 767.43c-14.14 0-25.605-11.465-25.605-25.605l0-102.422c0-14.142 11.465-25.605 25.605-25.605l204.842 0c14.142 0 25.605 11.462 25.605 25.605l0 102.42C383.971 755.965 372.509 767.43 358.367 767.43zM332.762 665.008 179.13 665.008l0 51.212 153.632 0L332.762 665.008zM358.367 562.466 153.525 562.466c-14.14 0-25.605-11.465-25.605-25.605l0-102.42c0-14.142 11.465-25.605 25.605-25.605l204.842 0c14.142 0 25.605 11.462 25.605 25.605l0 102.42C383.971 551.001 372.509 562.466 358.367 562.466zM332.762 460.046 179.13 460.046l0 51.21 153.632 0L332.762 460.046zM358.367 358.516 153.525 358.516c-14.14 0-25.605-11.465-25.605-25.605l0-102.42c0-14.14 11.465-25.605 25.605-25.605l204.842 0c14.142 0 25.605 11.465 25.605 25.605l0 102.42C383.971 347.051 372.509 358.516 358.367 358.516zM332.762 256.097 179.13 256.097l0 51.21 153.632 0L332.762 256.097zM358.367 153.552 153.525 153.552c-14.14 0-25.605-11.46-25.605-25.6l0-102.42c0-14.14 11.465-25.61 25.605-25.61l204.842 0c14.142 0 25.605 11.47 25.605 25.61l0 102.42C383.971 142.092 372.509 153.552 358.367 153.552zM332.762 51.132 179.13 51.132l0 51.21 153.632 0L332.762 51.132z"  horiz-adv-x="1024" />

    
    <glyph glyph-name="yirenchaxun" unicode="&#58882;" d="M948.928-7.083c-6.37-6.355-14.83-9.86-23.81-9.86-8.995 0-17.45 3.505-23.81 9.855l-59.97 59.97c-24.45-15.7-53.44-24.93-84.59-24.93-86.645 0-157.135 70.49-157.135 157.13 0 86.635 70.49 157.125 157.135 157.125 86.635 0 157.125-70.49 157.125-157.125 0-31.145-9.225-60.13-24.915-84.58l59.96-59.97C962.048 27.402 962.048 6.047 948.928-7.083zM756.603 289.607c-57.565 0-104.39-46.825-104.39-104.39 0-57.555 46.825-104.385 104.39-104.385 20.68 0 39.92 6.115 56.155 16.525 12.675 8.135 23.46 18.905 31.61 31.555 10.475 16.265 16.625 35.56 16.625 56.3C860.998 242.782 814.168 289.607 756.603 289.607zM593.533 382.121c6.92-2.02 13.555-4.51 20.335-6.77-17.32-11.505-29.195-25.9-42.61-41.695-16.84 4.735-36.775 12.025-53.45 15.365-19.017-5.13-38.637-11.82-59.255-11.82-29.167 0-56.842 6.01-82.525 15.99-128.62-16.18-229.082-92.77-271.124-198.62l0-79.67c0-6.73 2.62-13.055 7.37-17.8 4.775-4.775 11.097-7.395 17.827-7.395l438.456 0c13.25-15.515 27.935-29.7 44.95-41.055L140.825 8.651c-20.202 0-39.19 7.88-53.457 22.16-14.262 14.25-22.135 33.235-22.135 53.44l0 89.065 1.66 4.355c41.23 107.795 137.402 176.46 246.229 213.074-50.722 42.075-83.76 104.76-83.76 175.65 0 126.37 102.82 229.192 229.194 229.192 126.367 0 229.192-102.822 229.192-229.192C687.748 490.636 650.358 423.871 593.533 382.121zM458.489 753.148c-102.957 0-186.717-83.762-186.717-186.722s83.76-186.72 186.717-186.72c102.96 0 186.72 83.76 186.72 186.72C645.208 669.388 561.449 753.148 458.489 753.148z"  horiz-adv-x="1024" />

    
    <glyph glyph-name="yizhandingwei" unicode="&#58883;" d="M511.999 672.001045c-88.351982 0-159.999968-71.614986-159.999968-159.999968s71.679986-159.999968 159.999968-159.999968 159.999968 71.614986 159.999968 159.999968S600.347982 672.001045 511.999 672.001045zM511.999 416.001096c-53.024989 0-95.999981 42.974991-95.999981 95.999981s42.974991 95.999981 95.999981 95.999981 95.999981-42.974991 95.999981-95.999981S565.023989 416.001096 511.999 416.001096zM511.999 896C299.934042 896 128.000077 724.066034 128.000077 512.001077c0-160.574968 320.126936-640.347872 383.998923-639.997872 62.849987-0.35 383.998923 481.598904 383.998923 639.997872C895.997923 724.066034 724.062958 896 511.999 896zM511.999-31.997814c-53.214989-0.255-319.998936 410.208918-319.998936 543.998891C191.999064 688.736041 335.264035 832.000013 511.999 832.000013s319.998936-143.264971 319.998936-319.998936C831.997936 380.001103 564.38399-32.252814 511.999-31.997814z"  horiz-adv-x="1024" />

    
    <glyph glyph-name="yonghuquanxian" unicode="&#58884;" d="M512.505903 793.607905c121.176603 0 219.429495-91.684782 219.429495-204.787065l109.711873 0C841.645834 758.463485 694.285898 896 512.505903 896 330.718721 896 183.364534 758.463485 183.364534 588.82084l109.711873 0C293.076407 701.923123 391.323551 793.607905 512.505903 793.607905L512.505903 793.607905zM512.505903 793.607905M878.223165 520.535489 146.794389 520.535489C106.394043 520.535489 73.646912 489.967188 73.646912 452.284632l0-511.999281c0-37.714175 32.747132-68.285351 73.147477-68.285351l731.42734 0 0.005749 0c40.383099-0.005749 73.135979 30.571176 73.135979 68.285351L951.363456 452.284632C951.363456 489.967188 918.610576 520.535489 878.223165 520.535489L878.223165 520.535489zM890.192361-61.304218c0-7.76388-6.355401-14.119281-14.119281-14.119281L152.408183-75.423499c-7.769629 0-14.119281 6.355401-14.119281 14.119281L138.288902 443.498886c0 7.76388 6.349652 14.119281 14.119281 14.119281l723.664897 0c7.76388 0 14.119281-6.355401 14.119281-14.119281L890.192361-61.304218 890.192361-61.304218zM890.192361-61.304218M512.510214 349.855169l-0.005749 0.004312c-60.609141 0-109.716185-45.8273-109.716185-102.396407 0-37.788911 22.220909-70.468493 54.861686-88.180832l0-97.427926c0-29.424271 24.566457-53.318108 54.860248-53.318108 30.276545 0 54.855937 23.893836 54.855937 53.318108l0 97.427926c32.640777 17.712339 54.855937 50.393358 54.855937 88.180832C622.217776 304.024994 573.115044 349.855169 512.510214 349.855169L512.510214 349.855169zM512.510214 349.855169"  horiz-adv-x="1024" />

    
    <glyph glyph-name="yuegangaodaoluyunshu" unicode="&#58885;" d="M562.146155 438.617725c-19.274305 167.29591-18.830309 334.736944-0.291687 378.876453 11.916044-10.299554 38.106051-40.458223 82.7614-127.787464l65.551891 33.474988C640.421616 859.432387 591.281766 908.7188 540.440649 893.272342c-67.089353-20.234141-84.37789-176.052255-51.345461-463.113529L562.146155 438.617725 562.146155 438.617725zM562.146155 438.617725M439.140627 367.917493C271.110472 401.909758 114.629956 453.036813 78.730952 484.671158c13.459253 8.092507 50.172967 23.691273 147.133613 39.216759l-11.62292 72.606971C63.133623 572.292085 1.044612 540.804302 0.011495 487.690042c-1.471365-70.109674 141.397589-134.628448 424.563482-191.86799L439.140627 367.917493 439.140627 367.917493zM439.140627 367.917493M254.260183-51.122623c-3.603694 15.373176-6.987546 55.173309 8.167225 152.06211l-72.685999 11.332671c-23.686963-151.181303-12.870132-219.971921 37.302835-237.477427 5.517618-1.840643 11.253642-2.794731 17.2871-2.794731 66.724385 0 166.262793 116.605666 296.480021 347.38867l-64.076216 36.269719C393.969438 108.960151 295.239993-26.330699 254.260183-51.122623L254.260183-51.122623zM254.260183-51.122623M607.76134 253.743028c116.016545-126.38938 212.534632-259.693025 222.986495-306.40886-15.670611 1.398084-54.516655 10.372835-142.139019 54.804031l-33.322678-65.692705c83.27724-42.231333 141.324308-62.830441 181.197721-62.830441 25.527606 0 43.622232 8.38563 56.133144 24.938485 42.37071 55.914739-35.24235 192.086396-230.714034 404.845181L607.76134 253.743028 607.76134 253.743028zM607.76134 253.743028M1075.212808 535.949086c-40.024286 57.457948-193.48448 25.751759-456.271107-94.312476l30.601228-66.875257c153.021946 69.963112 312.223912 121.978159 360.191269 117.342785-6.106739-14.56565-26.705847-48.77632-96.079838-118.223592l52.160172-51.940329C1073.814724 430.378656 1105.52235 492.400134 1075.212808 535.949086L1075.212808 535.949086zM1075.212808 535.949086M557.362782 36.200871c0-9.631405 3.962914-19.201024 10.776598-26.010397 6.807936-6.806499 16.377555-10.776598 26.010397-10.776598 9.625657 0 19.201024 3.970099 26.010397 10.776598 6.807936 6.807936 10.770851 16.377555 10.770851 26.010397 0 9.632842-3.962914 19.201024-10.770851 26.010397s-16.383303 10.776598-26.010397 10.776598c-9.631405 0-19.201024-3.968662-26.010397-10.776598C561.325697 55.401895 557.362782 45.833712 557.362782 36.200871L557.362782 36.200871zM557.362782 36.200871M814.851634 295.013089c0-9.631405 3.968662-19.201024 10.776598-26.010397s16.377555-10.770851 26.010397-10.770851 19.201024 3.962914 26.010397 10.770851 10.776598 16.377555 10.776598 26.010397c0 9.632842-3.968662 19.201024-10.776598 26.010397s-16.377555 10.776598-26.010397 10.776598-19.201024-3.968662-26.010397-10.776598S814.851634 304.64593 814.851634 295.013089L814.851634 295.013089zM814.851634 295.013089M630.931026 591.639671c0-9.625657 3.968662-19.201024 10.776598-26.010397 6.807936-6.807936 16.377555-10.770851 26.010397-10.770851s19.201024 3.962914 26.010397 10.770851c6.807936 6.809373 10.776598 16.38474 10.776598 26.010397 0 9.631405-3.968662 19.201024-10.776598 26.010397-6.807936 6.813684-16.377555 10.776598-26.010397 10.776598s-19.201024-3.962914-26.010397-10.776598C634.898251 610.840695 630.931026 601.271076 630.931026 591.639671L630.931026 591.639671zM630.931026 591.639671M302.74338 528.517543c0-9.625657 3.962914-19.201024 10.776598-26.00896 6.809373-6.809373 16.378992-10.770851 26.010397-10.770851 9.625657 0 19.201024 3.961477 26.00896 10.770851 6.809373 6.807936 10.772288 16.383303 10.772288 26.00896 0 9.631405-3.962914 19.202461-10.772288 26.010397-6.807936 6.813684-16.383303 10.776598-26.00896 10.776598-9.631405 0-19.201024-3.962914-26.010397-10.776598C306.706294 547.720004 302.74338 538.148948 302.74338 528.517543L302.74338 528.517543zM302.74338 528.517543M242.93326 211.954254c0-9.631405 3.962914-19.199587 10.770851-26.010397 6.815121-6.807936 16.38474-10.770851 26.016145-10.770851 9.625657 0 19.195277 3.962914 26.00896 10.770851 6.809373 6.809373 10.772288 16.377555 10.772288 26.010397s-3.962914 19.201024-10.772288 26.010397c-6.813684 6.807936-16.383303 10.776598-26.00896 10.776598-9.631405 0-19.201024-3.968662-26.016145-10.776598C246.896174 231.156715 242.93326 221.587096 242.93326 211.954254L242.93326 211.954254zM242.93326 211.954254"  horiz-adv-x="1087" />

    
    <glyph glyph-name="yunguanjigou" unicode="&#58886;" d="M870.738 283.027 870.738 385.194l0 51.075-51.085 0L564.249 436.269l0 51.075 204.325 0L768.574 793.833 308.847 793.833l0-306.489 204.322 0 0-51.075L257.764 436.269l-51.08 0 0-51.075 0-102.167L104.522 283.027l0-306.489 255.404 0L359.926 283.027 257.764 283.027 257.764 385.194l255.404 0 0-102.167L411.006 283.027l0-306.489 255.402 0L666.408 283.027l-102.16 0L564.248 385.194l255.404 0 0-102.167L717.488 283.027l0-306.489 255.404 0L972.892 283.027 870.738 283.027zM308.847 231.942l0-204.32L155.605 27.622l0 204.32 51.08 0 51.08 0L308.847 231.942zM615.328 231.942l0-204.32-153.24 0 0 204.32L615.328 231.942zM359.927 538.431 359.927 742.748l357.562 0 0-204.317L359.927 538.431zM921.818 27.622 768.573 27.622l0 204.32 51.08 0 51.08 0 51.08 0 0-204.32L921.818 27.622z"  horiz-adv-x="1024" />

    
    <glyph glyph-name="zhongzhi" unicode="&#58887;" d="M917.633 510.336l-181.99 0c-23.185 0-41.995 18.812-41.995 42s18.81 41.997 41.995 41.997l73.06 0c-65.895 93.125-174.305 153.992-297.047 153.992-201.02 0-363.979-162.962-363.979-363.982 0-201.022 162.96-363.982 363.979-363.982 201.017 0 363.982 162.96 363.982 363.982 0 23.187 18.81 41.997 41.995 41.997s41.995-18.81 41.995-41.997c0-247.392-200.58-447.976-447.971-447.976-247.419 0-447.974 200.584-447.974 447.976 0 247.417 200.555 447.976 447.974 447.976 150.132 0 282.772-74.02 363.982-187.435l0 75.44c0 23.185 18.81 41.997 41.995 41.997s41.995-18.812 41.995-41.997l0-167.99C959.628 529.148 940.818 510.336 917.633 510.336z"  horiz-adv-x="1024" />

    
    <glyph glyph-name="zongheyunshupingtai" unicode="&#58888;" d="M918.953765 895.986015 131.276826 895.986015C58.790568 895.986015 0 837.195446 0 764.709189l0-603.892979c0-72.486258 58.790568-131.276826 131.276826-131.276826l787.676939 0c72.494249 0 131.284818 58.790568 131.284818 131.276826L1050.238583 764.709189C1050.238583 837.195446 991.479981 895.986015 918.953765 895.986015L918.953765 895.986015zM997.723457 160.81621c0-43.500545-35.259157-78.7617-78.769692-78.7617L131.276826 82.054509c-43.500545 0-78.7617 35.259157-78.7617 78.7617L52.515126 764.709189c0 43.500545 35.261155 78.7617 78.7617 78.7617l787.676939 0c43.508537 0 78.769692-35.261155 78.769692-78.7617L997.723457 160.81621 997.723457 160.81621zM997.723457 160.81621M840.192065-75.482876 236.299086-75.482876c-14.490858 0-26.252568-11.76171-26.252568-26.254566s11.76171-26.262558 26.252568-26.262558l603.892979 0c14.492856 0 26.254566 11.769702 26.254566 26.262558S854.684921-75.482876 840.192065-75.482876L840.192065-75.482876zM840.192065-75.482876M498.86073 764.709189c-14.490858 0-26.252568-11.769702-26.252568-26.262558l0-210.046518c0-14.492856 11.76171-26.252568 26.252568-26.252568 14.492856 0 26.254566 11.759712 26.254566 26.252568L525.115296 738.446631C525.115296 752.939487 513.353586 764.709189 498.86073 764.709189L498.86073 764.709189zM498.86073 764.709189M787.676939 502.147545c-14.492856 0-26.254566-11.76171-26.254566-26.254566l0-210.052512c0-14.492856 11.76171-26.254566 26.254566-26.254566s26.254566 11.76171 26.254566 26.254566L813.931505 475.892979C813.931505 490.385835 802.169795 502.147545 787.676939 502.147545L787.676939 502.147545zM787.676939 502.147545M367.583904 580.915239c-14.492856 0-26.252568-11.759712-26.252568-26.26056l0-210.046518c0-14.492856 11.759712-26.254566 26.252568-26.254566s26.254566 11.76171 26.254566 26.254566L393.83847 554.654679C393.83847 569.155527 382.07676 580.915239 367.583904 580.915239L367.583904 580.915239zM367.583904 580.915239M498.86073 318.355593c-14.490858 0-26.252568-11.76171-26.252568-26.254566l0-105.02226c0-14.492856 11.76171-26.262558 26.252568-26.262558 14.492856 0 26.254566 11.769702 26.254566 26.262558l0 105.02226C525.115296 306.593883 513.353586 318.355593 498.86073 318.355593L498.86073 318.355593zM498.86073 318.355593M656.400113 764.709189c-14.492856 0-26.254566-11.769702-26.254566-26.262558l0-78.7617c0-14.500848 11.76171-26.26056 26.254566-26.26056s26.254566 11.759712 26.254566 26.26056L682.654679 738.446631C682.654679 752.939487 670.892969 764.709189 656.400113 764.709189L656.400113 764.709189zM656.400113 764.709189M236.299086 764.709189c-14.490858 0-26.252568-11.769702-26.252568-26.262558l0-78.7617c0-14.500848 11.76171-26.26056 26.252568-26.26056 14.500848 0 26.262558 11.759712 26.262558 26.26056L262.561644 738.446631C262.561644 752.939487 250.799934 764.709189 236.299086 764.709189L236.299086 764.709189zM236.299086 764.709189M236.299086 344.608161c-14.490858 0-26.252568-11.76171-26.252568-26.254566l0-105.02226c0-14.492856 11.76171-26.254566 26.252568-26.254566 14.500848 0 26.262558 11.76171 26.262558 26.254566l0 105.02226C262.561644 332.848449 250.799934 344.608161 236.299086 344.608161L236.299086 344.608161zM236.299086 344.608161M656.400113 554.654679c-14.492856 0-26.254566-11.76171-26.254566-26.254566l0-157.529394c0-14.492856 11.76171-26.262558 26.254566-26.262558s26.254566 11.769702 26.254566 26.262558l0 157.529394C682.654679 542.892969 670.892969 554.654679 656.400113 554.654679L656.400113 554.654679zM656.400113 554.654679M787.676939 764.709189c-14.492856 0-26.254566-11.769702-26.254566-26.262558l0-131.276826c0-14.492856 11.76171-26.254566 26.254566-26.254566s26.254566 11.76171 26.254566 26.254566L813.931505 738.446631C813.931505 752.939487 802.169795 764.709189 787.676939 764.709189L787.676939 764.709189zM787.676939 764.709189M498.86073 475.892979c-14.490858 0-26.252568-11.769702-26.252568-26.26056l0-78.7617c0-14.492856 11.76171-26.262558 26.252568-26.262558 14.492856 0 26.254566 11.769702 26.254566 26.262558L525.115296 449.632419C525.115296 464.123277 513.353586 475.892979 498.86073 475.892979L498.86073 475.892979zM498.86073 475.892979M236.299086 528.400113c-14.490858 0-26.252568-11.759712-26.252568-26.252568l0-78.769692c0-14.492856 11.76171-26.254566 26.252568-26.254566 14.500848 0 26.262558 11.76171 26.262558 26.254566l0 78.769692C262.561644 516.640401 250.799934 528.400113 236.299086 528.400113L236.299086 528.400113zM236.299086 528.400113M367.583904 764.709189c-14.492856 0-26.252568-11.769702-26.252568-26.262558l0-52.507134c0-14.492856 11.759712-26.254566 26.252568-26.254566s26.254566 11.76171 26.254566 26.254566L393.83847 738.446631C393.83847 752.939487 382.07676 764.709189 367.583904 764.709189L367.583904 764.709189zM367.583904 764.709189"  horiz-adv-x="1051" />

    
    <glyph glyph-name="waishangtouzidaoluyunshu" unicode="&#58889;" d="M973.049735 233.717893c-0.178866-0.050082-18.41743-3.88496-34.571137-3.800536-11.05103 0.055806-21.117584 1.95035-23.750486 8.143392-3.046438 7.191827-4.080997 17.892281-4.231244 32.793929-0.905775 93.138879-1.838738 186.332133 0.34056 279.430946 1.06747 45.718039-15.343804 75.454082-55.582833 97.756472C758.976268 701.399842 663.758256 756.775191 569.238535 813.223734c-39.059947 23.325501-74.167681 23.263971-113.093122 0.167418-96.020761-56.973692-192.978777-112.371936-289.972567-167.691479-35.884726-20.463652-52.805409-49.685993-52.524947-91.177081C114.412012 441.194798 114.383394 327.851265 113.667931 214.517748c-0.256135-41.502536 16.780452-70.215468 52.972827-90.661948 98.572099-55.672981 196.779313-111.992741 294.23386-169.59747 34.492436-20.390675 66.224619-21.292157 100.528173-1.280677 104.474663 60.970264 209.780693 120.515327 313.685849 182.425709 20.390675 12.157135 46.505048-44.689205 35.471189-51.328694-112.958615-67.875906-227.074848-133.903057-342.337251-197.793839-40.646843-22.512736-84.580519-16.840551-124.786637 6.171578-107.665625 61.635644-215.196743 123.528854-322.310031 186.114632C74.46346 105.829012 51.15513 148.097092 50.941923 201.972832c-0.490807 121.097714-0.373471 242.195427-0.088717 363.287417 0.134507 57.712049 25.779537 100.768569 75.989248 129.616007C230.37843 754.365514 333.837137 813.989278 437.04257 874.056629c51.964025 30.251176 102.303951 28.752998 153.990376-1.57831 100.299225-58.868236 201.156511-116.814956 302.232729-174.353864 53.313387-30.345617 80.75852-73.894375 80.10888-136.345646C972.272743 456.175147 973.049735 237.982048 973.049735 233.717893L973.049735 233.717893zM973.049735 233.717893M554.913549 272.347132l126.167479 0c0.950134-18.053975 1.721402-32.874061 2.755961-52.912728l-130.571865 0 0-108.408275-67.968916 0c-1.498178 32.564981-3.090797 67.203371-4.90664 107.02314l-132.248909 0 0 53.530887 130.481717 0 0 75.537076-130.056732 0c-0.9902 19.942795-1.717109 34.609772-2.682984 54.161925l117.663495 0c-48.89183 84.468907-93.446528 161.436908-140.632696 242.965265 44.458826 10.206785 75.598606 11.229896 96.827802-35.761666 28.575563-63.251158 64.241358-123.277012 99.432085-189.501631 34.057435 63.563099 68.728737 121.667222 96.754825 182.816351 19.792548 43.191027 46.639555 57.952444 95.883392 42.302422-45.414683-77.800799-90.298494-154.691529-139.342002-238.696817l107.536842 0c1.576879-20.127385 2.721618-34.76145 4.28705-54.78867l-129.381336 0C554.913549 323.372471 554.913549 301.167384 554.913549 272.347132L554.913549 272.347132zM554.913549 272.347132M973.301578 236.043146c0-17.558875-14.236268-31.800867-31.793713-31.800867-17.561737 0-31.799436 14.237699-31.799436 31.800867 0 17.556013 14.236268 31.793713 31.799436 31.793713C959.065309 267.831135 973.301578 253.599159 973.301578 236.043146L973.301578 236.043146zM973.301578 236.043146M924.348218 109.361964c0-17.0094-13.78982-30.793496-30.787773-30.793496-17.003676 0-30.787773 13.78982-30.787773 30.793496 0 16.997953 13.784096 30.780618 30.787773 30.780618S924.348218 126.359917 924.348218 109.361964L924.348218 109.361964zM924.348218 109.361964M909.715584 347.32901l63.335582 0 0-113.611116-63.335582 0L909.715584 347.32901 909.715584 347.32901zM909.715584 347.32901"  horiz-adv-x="1024" />

    
    <glyph glyph-name="weixinneirong" unicode="&#58890;" d="M696.62625 342.54625c0-11.72875 4.82875-23.38875 13.125-31.68375 8.29625-8.29625 19.95625-13.125 31.685-13.125 11.73375 0 23.39375 4.82875 31.685 13.125 8.29625 8.295 13.125 19.955 13.125 31.68375 0 11.735-4.82875 23.39-13.125 31.68625-8.29125 8.29625-19.95125 13.125-31.685 13.125-11.72875 0-23.38875-4.82875-31.685-13.125S696.62625 354.28125 696.62625 342.54625L696.62625 342.54625zM696.62625 342.54625M937.32375 340.6775c0-11.735 4.82875-23.38875 13.125-31.685s19.95125-13.125 31.685-13.125c11.72875 0 23.38875 4.82875 31.685 13.125s13.125 19.95 13.125 31.685c0 11.72875-4.82875 23.38875-13.125 31.685s-19.95625 13.125-31.685 13.125c-11.73375 0-23.38875-4.82875-31.685-13.125S937.32375 352.40625 937.32375 340.6775L937.32375 340.6775zM937.32375 340.6775M249.4725 641.28375c0-14.36125 5.91375-28.63875 16.07-38.795s24.4325-16.06875 38.79875-16.06875c14.36 0 28.6375 5.9125 38.79375 16.06875s16.06875 24.43375 16.06875 38.795c0 14.365-5.9125 28.6425-16.06875 38.79875s-24.43375 16.06875-38.79375 16.06875c-14.36625 0-28.6425-5.9125-38.79875-16.06875S249.4725 655.64875 249.4725 641.28375L249.4725 641.28375zM249.4725 641.28375M544.18 638.99375c0-14.36125 5.9125-28.63875 16.06875-38.795s24.43375-16.06875 38.79375-16.06875c14.36625 0 28.64375 5.9125 38.8 16.06875s16.06875 24.43375 16.06875 38.795c0 14.365-5.9125 28.6375-16.06875 38.79875-10.15625 10.15625-24.4325 16.06875-38.8 16.06875-14.36 0-28.6375-5.9125-38.79375-16.06875C550.0925 667.63125 544.18 653.35875 544.18 638.99375L544.18 638.99375zM544.18 638.99375M1216.73375 371.38125c-19.36 39.60375-47.13875 75.16625-82.56375 105.6975-63.75 54.94125-146.18625 88.33-235.025 95.7675-5.88875 30.2725-15.9425 59.78-30.16625 88.2175-23.12 46.235-56.10875 87.66125-98.05125 123.135C685.68875 856.2925 572.66625 896 452.685 896c-119.98 0-233.0025-39.7075-318.24125-111.80125C92.5 748.725 59.51125 707.29375 36.39125 661.06375 12.24125 612.7775 0 561.435 0 508.46625c0-52.97375 12.24125-104.31625 36.39125-152.6025 17.79375-35.58625 41.45-68.31625 70.5225-97.685l-0.005-0.00625c0 0 27.74-28.56375 33.6875-34.03625l-29.3075-113.39375c-3.2275-12.53375 0.90375-25.815 10.67375-34.30625 6.26-5.44 14.14125-8.31 22.14375-8.375 4.4875-0.0325 9.01875 0.81625 13.31625 2.59375l159.37 66.27875c16.48375-2.6075 16.48375-2.6075 29.2325-5.23875l0 0.01c34.52625-7.105 70.26875-10.7775 106.66-10.7775 17.29 0 34.42875 0.85625 51.3675 2.48625 1.09875-2.3925 2.2175-4.78125 3.37875-7.15875 19.36125-39.60125 47.13875-75.16125 82.56875-105.695 71.92875-61.99125 167.64625-96.57125 269.51625-97.3625 40.825-0.3175 80.7325 4.83375 118.60875 15.015l124.78-53.88125c3.555-1.5375 7.31-2.3 11.045-2.32875 6.66-0.05375 13.2525 2.23625 18.53 6.68 8.2375 6.9375 11.84625 17.935 9.32625 28.40375l-21.895 90.79625c3.74 2.88125 7.3 5.7275 10.59625 8.48125 35.89875 29.97875 64.22875 65.1025 84.20375 104.4 20.87375 41.06875 31.63625 84.83375 31.9875 130.0675C1247.05125 286.06875 1236.9675 329.9925 1216.73375 371.38125L1216.73375 371.38125zM452.685 181.37625c-37.71875 0-74.19875 4.4825-108.74 12.8125 0-0.04875 0-0.0925-0.005-0.1375-5.99625 1.55375-12.01625 3.23875-18.105 5.11875-8.97 5.42-20.3075 6.65875-30.7325 2.34875l-100.59625-41.59625 5.28875 20.5275c2.05125 6.5225 7.9 24.32125 11.09875 39.44875 0.69375 3.29625 1.1525 6.69375 1.29875 10.09125 0.7225 6.525-0.46875 12.93625-3.19875 18.58-0.13625 0.3025-0.2975 0.59625-0.44375 0.89375-0.035 0.06875-0.06375 0.13125-0.1025 0.2-0.835 1.655-1.8025 3.26125-2.95875 4.785-8.50625 11.19125-22.13875 16.9675-32.6325 25.9075-12.8025 10.91875-23.0225 20.7975-35.79625 34.15625-48.115 54.30625-76.61125 121.40125-76.61125 193.955 0 180.35625 175.9575 327.085 392.23625 327.085 189.44875 0 347.95-112.58875 384.36125-261.73875-91.5525-4.82875-177.12375-37.1925-243.38875-92.53375-35.89875-29.97625-64.22875-65.1025-84.2-104.4-20.87375-41.06875-31.64-84.83375-31.99125-130.07375-0.17125-21.80625 2.10875-43.30625 6.7575-64.36625C473.81875 181.7425 463.30625 181.37625 452.685 181.37625L452.685 181.37625zM1092.77875 48.98375c-8.8425-7.305-20.25875-11.93375-27.48-21.13375-0.98125-1.25-1.80625-2.5675-2.52-3.93375-0.04875-0.0875-0.0925-0.18125-0.13625-0.26375-0.1125-0.215-0.23-0.425-0.3325-0.64625-2.34875-4.6575-3.4275-9.97875-2.905-15.42375 0.07875-2.8275 0.415-5.65375 0.9525-8.40375 2.46125-12.62375 7.095-27.5 8.72125-32.95375l4.13625-17.15375-83.15 35.90375c-8.61875 3.725-18.07125 2.84125-25.605-1.5525-34.155-9.96625-65.7275-13.68125-104.4975-13.38-180.7375 1.40625-326.82125 125.36625-325.65 276.325 1.1725 150.9625 149.165 272.63625 329.9025 271.23s326.82125-125.36125 325.65-276.3225C1189.2775 166.025 1152.2025 98.05875 1092.77875 48.98375L1092.77875 48.98375zM1092.77875 48.98375"  horiz-adv-x="1247" />

    
    <glyph glyph-name="weixingdingwei" unicode="&#58891;" d="M422.94358 441.327719c7.905386-11.858078 40.854144-61.936781 206.907459-299.157871l1.319173-1.319173c9.224559-11.858078 25.041765-19.769899 39.541406-19.769899 15.810771 0 31.627977 7.911821 39.533363 21.089072 71.167775 102.795752 205.593113 296.52596 210.864978 303.110564l1.312738 1.320782c27.675284 46.12601 43.49249 100.157406 43.49249 154.193628 0 162.100622-131.791818 295.205178-295.205178 295.205178C507.291823 896 375.500005 764.208182 375.500005 600.794822 375.500005 544.12508 391.317211 490.093684 422.94358 441.327719L422.94358 441.327719 422.94358 441.327719zM669.392445 820.879532c121.246478 0 220.084711-98.838233 220.084711-220.084711 0-39.539798-10.538905-77.753987-31.627977-114.65383-7.905386-11.864513-115.974612-167.374097-187.135952-270.169849-55.352177 79.07316-175.285917 251.719123-187.143995 267.529894-22.403419 34.267932-35.58067 75.122076-35.58067 115.974612C449.3013 720.722127 548.145968 820.879532 669.392445 820.879532L669.392445 820.879532zM669.392445 436.055854c89.618501 0 163.419795 73.801295 163.419795 163.419795S759.010946 762.895444 669.392445 762.895444 505.971042 689.094149 505.971042 599.475649 578.457989 436.055854 669.392445 436.055854L669.392445 436.055854zM669.392445 689.094149c48.75953 0 88.299328-39.539798 88.299328-88.299328 0-50.078703-39.539798-88.297719-88.299328-88.297719-48.765965 0-88.299328 39.533363-88.299328 88.297719C581.093118 649.554352 620.624872 689.094149 669.392445 689.094149L669.392445 689.094149zM1295.389907 52.551348 1112.200213 407.066223l-151.555282 0-59.303261-76.441249 164.732533 0 167.372488-320.246943 2.63352-2.63352c9.224559-11.858078 9.224559-27.675284 2.639955-40.854144-6.592648-13.177251-19.769899-21.089072-35.58067-21.089072L115.880323-54.198705c-15.817206 0-28.994457 7.911821-35.587105 21.089072-6.586213 14.498033-5.271866 28.994457 3.952693 42.173317l1.320782 1.312738 164.732533 321.567725 187.142387 0-61.943216 76.434814L204.174825 408.378961 20.989957 52.551348c-25.043373-35.58067-27.675284-80.387507-7.905386-117.28735 21.082637-39.539798 59.303261-63.262389 104.110099-63.262389l1087.255954 0c43.49249 0 83.025853 23.722592 102.795752 63.262389C1324.377929-26.521812 1320.425236 18.289851 1295.389907 52.551348L1295.389907 52.551348zM1295.389907 52.551348"  horiz-adv-x="1318" />

    
    <glyph glyph-name="xiala" unicode="&#58892;" d="M2048 896 1024-128 0 896 2048 896zM2048 896"  horiz-adv-x="2048" />

    
    <glyph glyph-name="xiangxia1" unicode="&#58893;" d="M507.196 222.402 123.197 606.401c-12.8 12.8-32 12.8-44.8 0-12.8-12.8-12.8-32 0-44.8l403.199-403.199c6.4-6.4 19.2-12.8 25.6-12.8s19.202 0 25.602 6.4l409.599 409.599c12.8 12.8 12.8 32 0 44.8-12.8 12.8-32 12.8-44.8 0L507.196 222.402z"  horiz-adv-x="1024" />

    
    <glyph glyph-name="xiaoxitongzhi" unicode="&#58894;" d="M1285.11233 896 94.493753 896C42.520582 896 0 853.131013 0 800.753626L0-32.751934c0-52.385844 42.520582-95.248066 94.493753-95.248066l1190.618577 0c51.979936 0 94.500518 42.863913 94.500518 95.248066L1379.612848 800.753626C1379.612848 853.131013 1337.092266 896 1285.11233 896L1285.11233 896zM1227.204442 816.695673 710.623598 373.195229c-17.658701-17.831212-17.580902-17.86842-35.298797 0L158.755796 816.695673 1227.204442 816.695673 1227.204442 816.695673zM1301.984584-5.255032l-332.794038 356.800129c-18.465443 18.610894-48.353822 18.610894-66.819265 0-18.451913-18.597364-18.451913-48.756348 0-67.319886L1203.501091-49.546389 188.360039-49.546389l301.107824 333.773292c18.472209 18.563538 18.472209 48.763113 0 67.319886-18.445148 18.610894-48.353822 18.610894-66.805735 0L78.895036-11.188058 78.895036 748.991866l529.583439-443.123287c26.710455-26.884657 49.510661-46.835049 87.452936-46.835049 37.93551 0 54.848354 19.952082 81.518218 46.835049L1301.984584 749.024 1301.984584-5.255032 1301.984584-5.255032zM1301.984584-5.255032"  horiz-adv-x="1380" />

    
    <glyph glyph-name="xietongbangong" unicode="&#58895;" d="M321.148643-127.916366c-28.843912 0.250903-42.226819 0.36714-48.99411 1.091499l-0.021263-0.443687C119.53752-120.396366 0 7.690281 0 164.316071l0 73.2353c0 141.205892 76.895364 251.185003 196.770256 282.92493l0 26.323543c-58.073393 26.468131-89.940898 85.329671-89.940898 166.765386C106.829358 814.148949 186.610814 896 284.668493 896c98.087447 0 177.884496-81.851051 177.884496-182.434769 0-81.420122-31.873175-140.297255-89.986259-166.765386l0-26.42277c19.551999-5.648859 31.922789-13.76564 45.366649-23.65575 23.290028 20.094914 77.089566 57.531897 127.99876 57.531897 58.711282 0 112.211721-28.859505 145.52936-77.842275 23.084486 18.090525 41.041763 30.549202 75.350256 43.168059l0 27.22084c-58.113084 26.468131-89.984842 85.345264-89.984842 166.765386C676.826913 814.148949 756.623963 896 854.709992 896c98.059096 0 177.827795-81.851051 177.827795-182.434769 0-81.435715-31.856165-140.297255-89.929558-166.765386l0-26.323543c119.874892-31.739927 196.771674-141.719038 196.771674-282.92493l0-73.2353c0-161.133537-127.705331-292.232436-284.668493-292.232436-4.136354 0-9.551321 0.099227-14.928015 0.215465-2.928618 0.049614-5.852984 0.100645-8.533534 0.150258l0.01701-0.36714-71.004107 0-1.124102 10.289855c-12.431743 114.031831-74.126927 191.200779-174.040153 196.581725l-10.913568 0.598198-0.043943 180.881156 10.355061 1.074488c50.449914 5.199502 69.668793 46.466653 69.668793 110.360427 0 61.474049-48.550423 111.481693-108.231296 111.481693-59.652522 0-108.185935-50.007644-108.185935-111.481693 0-63.893774 19.201869-105.162342 69.63052-110.360427l10.353643-1.074488-0.043943-180.864145-10.913568-0.598198c-99.908973-5.397956-161.604157-82.565487-174.051493-196.597317l-1.135442-10.372071L321.148643-127.916366 321.148643-127.916366zM817.616051-39.852278c13.560098-2.66921 25.4872-3.92656 37.09394-3.92656 118.042025 0 214.085392 99.753045 214.085392 222.375111l0 44.741518c0 107.660031-53.9824 189.810181-140.878443 214.357558l-45.012266 9.130315L882.904675 602.228126l10.360731 1.057478c59.381774 6.079789 69.63052 60.965156 69.63052 110.279627 0 61.491059-48.533412 111.519967-108.185935 111.519967-59.663863 0-108.197275-50.028907-108.197275-111.519967 0-49.314472 10.248746-104.199839 69.61918-110.279627l10.360731-1.057478 0-155.850401-10.1722-1.224746c-9.263562-1.095751-24.646604-4.589964-34.862747-7.457628-17.802767-4.967027-38.833251-22.69183-59.498011-40.799365 1.217659-8.831216 1.815857-17.059981 1.815857-25.02792 0-81.635587-31.806551-140.610529-89.803398-167.06165l0-50.478264C721.717272 130.954488 786.546616 62.455157 817.616051-39.852278L817.616051-39.852278zM284.668493 825.085197c-59.652522 0-108.180264-50.028907-108.180264-111.519967 0-49.337152 10.254416-104.199839 69.61351-110.279627l10.360731-1.057478 0-155.419471-46.280956-9.3798c-85.610342-24.280881-139.587072-106.431032-139.587072-214.108073l0-44.730178c0-118.059035 90.14077-215.762331 202.701204-221.959775 29.994947 104.211179 95.102127 173.918246 184.599339 197.712914l0 50.457001c-57.996847 26.456791-89.80198 85.427481-89.80198 167.06165 0 18.107536 1.029127 37.143554 7.796418 55.095161-5.820381 5.039321-13.544505 9.564079-21.750589 12.641538-5.908267 2.18725-16.877119 4.541768-30.526521 5.498601l-10.725036 0.764049L312.887274 602.228126l10.359314 1.057478c59.364764 6.079789 69.614927 60.965156 69.614927 110.279627C392.861515 775.05629 344.321015 825.085197 284.668493 825.085197L284.668493 825.085197zM284.668493 825.085197"  horiz-adv-x="1140" />

    
    <glyph glyph-name="xinxifabu" unicode="&#58896;" d="M732.281753 38.715786 181.006897 38.715786c-17.800408 0-32.207928 14.40752-32.207928 32.213374s14.40752 32.207928 32.207928 32.207928l551.274857 0c17.805854 0 32.213374-14.40752 32.213374-32.207928C764.495128 53.123306 750.087607 38.715786 732.281753 38.715786L732.281753 38.715786zM732.281753 38.715786M792.144714-128 121.085391-128C67.794449-128 24.449352-84.656265 24.449352-31.365323L24.449352 799.365323C24.449352 852.654903 67.799895 896 121.085391 896l454.355623 0c17.805854 0 32.207928-14.40752 32.207928-32.207928 0-17.805854-14.40752-32.213374-32.207928-32.213374L121.085391 831.578697c-17.774539 0-32.214736-14.440197-32.214736-32.213374l0-830.730645c0-17.774539 14.440197-32.213374 32.214736-32.213374l671.059323 0c17.769093 0 32.207928 14.438835 32.207928 32.213374L824.352642 225.067298c0 17.800408 14.40752 32.207928 32.213374 32.207928s32.207928-14.40752 32.207928-32.207928l0-256.43262C888.775307-84.656265 845.43021-128 792.144714-128L792.144714-128zM792.144714-128M382.393586 199.394627c-8.524427 0-16.986224 3.43101-23.028614 9.466593-10.945195 10.950641-10.945195 10.950641-4.40313 90.061297l7.01451 83.738435c3.52087 42.563589 29.975049 99.624558 60.2047 129.854209L730.393336 820.756038c36.336033 36.303357 100.219538 36.398662 136.650877 0.031315l104.24553-104.309521c37.681207-37.681207 37.681207-98.96014 0-136.645431L663.046144 271.651432c-30.229651-30.229651-87.29062-56.68383-129.848763-60.236015l-83.738435-6.955965C409.098283 201.096517 386.542113 199.394627 382.393586 199.394627L382.393586 199.394627zM798.719455 784.553433c-8.652409 0-16.737067-3.334343-22.774012-9.344057L467.73316 466.964416c-19.816807-19.848122-39.260561-61.714617-41.553347-89.652844l-7.01451-83.732989c-0.786954-9.689881-1.542593-18.907317-2.201565-27.145827 8.238509 0.658972 17.454584 1.414611 27.144465 2.228795l83.738435 6.950519c27.932781 2.329547 69.799275 21.767854 89.652844 41.590108l308.239514 308.180969c12.551779 12.544972 12.551779 32.994882 0 45.546662l-104.309521 104.340835C815.456523 781.21909 807.366418 784.553433 798.719455 784.553433L798.719455 784.553433zM798.719455 784.553433"  horiz-adv-x="1024" />

    
    <glyph glyph-name="liebiaoshouqi" unicode="&#58897;" d="M777.043 217.642 511.999 483.646 246.974 217.642c-12.565-12.63-32.98-12.63-45.545 0s-12.565 33.13 0 45.76l286.184 287.204c6.7 6.745 15.595 9.6 24.385 9.18 8.79 0.445 17.665-2.415 24.385-9.18l286.204-287.204c12.545-12.63 12.545-33.13 0-45.76C810.003 205.012 789.628 205.012 777.043 217.642z"  horiz-adv-x="1024" />

    
    <glyph glyph-name="liebiaoziliaobiangeng" unicode="&#58898;" d="M1293.427 208.222 1293.427 531.321l-0.01 3.725L1293.417 799.348c0 53.295-43.36 96.652-96.65 96.652L499.816 896c-53.295 0-96.652-43.357-96.652-96.652l0.015-830.3c0-53.295 43.355-96.655 96.647-96.655l325.239 0c14.865 0 26.955 12.09 26.955 26.955 0 14.86-12.09 26.955-26.955 26.955L499.816-73.697c-23.567 0-42.742 19.17-42.742 42.74l0.015 830.31c0 23.57 19.172 42.742 42.74 42.742l696.948 0c23.57 0 42.74-19.175 42.74-42.742l-0.015-573.226L996.697 226.127c-31.585 0-57.275-25.69-57.275-57.275l0-265.474c0-19.645 7.41-31.375 19.825-31.375 7.42 0 15.86 4.515 24.4 13.06l296.839 296.839c7.65 7.65 12.115 15.315 12.915 22.16C1293.567 205.462 1293.577 206.862 1293.427 208.222zM1198.997 174.057l-207.5-207.504L991.497 168.857c0 2.77 2.43 5.2 5.2 5.2L1198.997 174.057zM541.064 604.868l613.393 0c16.99 0 30.81 13.817 30.81 30.8 0 16.987-13.82 30.807-30.81 30.807L541.064 666.475c-16.987 0-30.802-13.82-30.802-30.807C510.261 618.686 524.076 604.868 541.064 604.868zM541.064 375.511l613.403 0c0.005 0 0.005 0 0.005 0 8.195 0 15.92 3.215 21.75 9.05 5.83 5.83 9.045 13.56 9.045 21.757 0 16.985-13.82 30.802-30.805 30.802L541.064 437.12c-16.987 0-30.802-13.817-30.802-30.802C510.261 389.329 524.076 375.511 541.064 375.511z"  horiz-adv-x="1742" />

    
    <glyph glyph-name="luxianchaxun" unicode="&#58899;" d="M273.089-53.628 64.102-53.628 64.102 386.429l504.166 0L568.268 534.561 385.684 534.561 672.758 821.633l287.069-287.072-182.58 0 0-357.119L273.089 177.442 273.089-53.628zM105.035-12.698l127.122 0L232.157 218.377l504.161 0L736.318 575.493l124.695 0L672.758 763.748 484.504 575.493l124.695 0 0-229.992L105.035 345.501 105.035-12.698z"  horiz-adv-x="1024" />

    
    <glyph glyph-name="naozhong" unicode="&#58900;" d="M764.873 638.738c-32.875 32.872-71.155 58.682-113.79 76.717-44.15 18.672-91.035 28.14-139.36 28.14-48.32 0-95.207-9.467-139.357-28.14-42.635-18.035-80.92-43.845-113.792-76.717-32.87-32.872-58.682-71.157-76.715-113.79-18.672-44.15-28.142-91.037-28.142-139.36 0-48.317 9.47-95.207 28.142-139.357 18.032-42.635 43.842-80.92 76.715-113.79 4.965-4.965 10.065-9.745 15.272-14.385l-66.702-66.7 29.305-29.305 70.105 70.1c20.527-14.38 42.515-26.57 65.812-36.43 44.15-18.67 91.037-28.14 139.357-28.14 48.325 0 95.21 9.47 139.36 28.14 23.295 9.86 45.285 22.05 65.81 36.43l70.105-70.1 29.305 29.305-66.705 66.7c5.21 4.64 10.31 9.42 15.275 14.385 32.87 32.87 58.685 71.155 76.715 113.79 18.675 44.15 28.14 91.04 28.14 139.357 0 48.322-9.465 95.21-28.14 139.36C823.558 567.581 797.748 605.866 764.873 638.738zM735.568 161.747c-59.79-59.795-139.29-92.72-223.842-92.72-84.557 0-164.055 32.925-223.844 92.72-59.792 59.79-92.72 139.285-92.72 223.842s32.927 164.055 92.72 223.844c59.79 59.79 139.287 92.72 223.844 92.72 84.552 0 164.052-32.927 223.842-92.72 59.79-59.79 92.72-139.287 92.72-223.844S795.358 221.537 735.568 161.747zM510.751 560.751l-41.445 0 0-247.429 165.287 0 0 41.45L510.751 354.772 510.751 560.751zM112.877 631.093l148.82 148.82 36.63-36.632-148.82-148.82L112.877 631.093zM725.113 743.278l36.63 36.63 148.82-148.82-36.63-36.632L725.113 743.278z"  horiz-adv-x="1024" />

    
    <glyph glyph-name="qiehuan" unicode="&#58901;" d="M972.372 225.962 334.962 225.962 163.41 225.962 16.395 225.962l440.986-332.599-50.992 204.689 566.114 0L972.372 225.962 972.372 225.962 972.372 225.962zM66.26 486.664l808.893 0 147.08 0L568.884 819.253l50.985-204.687L66.13 614.566 66.26 486.664 66.26 486.664 66.26 486.664z"  horiz-adv-x="1024" />

    
    <glyph glyph-name="shanchu" unicode="&#58902;" d="M478.514505 606.896432c0 20.087018 16.432499 36.519517 36.519517 36.519517l0 0c20.081312 0 36.513811-16.432499 36.513811-36.519517l0-553.845101c0-20.087018-16.432499-36.519517-36.513811-36.519517l0 0c-20.087018 0-36.519517 16.432499-36.519517 36.519517L478.514505 606.896432 478.514505 606.896432zM478.514505 606.896432M306.596619 606.896432c0 20.087018 16.431072 36.519517 36.512384 36.519517l0 0c20.087018 0 36.519517-16.432499 36.519517-36.519517l0-553.845101c0-20.087018-16.432499-36.519517-36.519517-36.519517l0 0c-20.081312 0-36.512384 16.432499-36.512384 36.519517L306.596619 606.896432 306.596619 606.896432zM306.596619 606.896432M650.47233 606.896432c0 20.087018 16.432499 36.519517 36.519517 36.519517l0 0c20.081312 0 36.513811-16.432499 36.513811-36.519517l0-553.845101c0-20.087018-16.432499-36.519517-36.513811-36.519517l0 0c-20.087018 0-36.519517 16.432499-36.519517 36.519517L650.47233 606.896432 650.47233 606.896432zM650.47233 606.896432M953.23256 786.448582 809.502401 786.448582l-52.511248 0 0 45.902587C756.992579 868.101839 724.930663 896 683.960678 896L346.180112 896c-40.971411 0-73.031901-27.970909-73.031901-63.64883l0-45.902587-52.511248 0L70.773146 786.448582C50.61338 786.448582 34.253629 770.128772 34.253629 749.936198 34.253629 729.737918 50.61338 713.416681 70.773146 713.416681l76.826211 0 0-770.173526c0-39.292501 32.758015-71.243155 73.037607-71.243155l588.826924 0c40.279592 0 73.037607 31.950654 73.037607 71.243155L882.501494 713.416681l70.731066 0c20.15406 0 36.513811 16.321237 36.513811 36.519517C989.746371 770.128772 973.38662 786.448582 953.23256 786.448582L953.23256 786.448582zM346.140172 822.968099l337.780566 0 0-36.519517L346.140172 786.448582 346.140172 822.968099 346.140172 822.968099zM771.050069-55.079361c0 0-472.450028-1.564796-512.401541-1.564796-39.950086 0-38.011565 41.225316-38.011565 41.225316L220.636963 678.396345c0 42.252348 35.75067 35.020336 35.75067 35.020336l89.792479 0 337.780566 0 82.526234 0c0 0 43.049723 2.591827 43.049723-35.020336 0-37.610737 0.584837-661.826017 0.584837-697.212947C810.121472-54.199252 771.050069-55.079361 771.050069-55.079361L771.050069-55.079361zM771.050069-55.079361"  horiz-adv-x="1024" />

    
    <glyph glyph-name="shezhi" unicode="&#58903;" d="M1048.468231 388.522838l-49.923495 219.002532-132.392223 14.749-33.680532 42.291293 15.190976 132.19877L645.246521 894.234921l-93.991164-94.287697-54.043895 0L403.227359 894.234921 200.810921 796.764434l15.196624-132.270785-33.65229-42.219278-132.386574-14.749L0 388.522838l112.81679-70.624342 12.046311-52.660073L53.823613 152.647563l140.135977-175.663488 125.574781 44.170749 48.693588-23.431777 43.718889-125.723048 224.656433 0 43.751367 125.723048 48.655462 23.431777 125.58043-44.170749 140.130329 175.663488-71.039488 112.589448 12.013834 52.660073L1048.468231 388.522838 1048.468231 388.522838 1048.468231 388.522838zM896.098138 158.075534l-68.794308-86.274238-103.158278 36.305557-108.882782-52.477917-35.929948-103.196404-110.229891 0-35.929948 103.196404-108.889843 52.477917-103.146981-36.305557-68.798544 86.274238 58.3521 92.446366-26.912513 117.791489-92.638407 58.016029 24.517654 107.537086 108.734516 12.091497 75.308155 94.426079-12.465694 108.584837 99.373949 47.877415 77.217265-77.403657 120.862726 0 77.217265 77.403657 99.373949-47.877415-12.465694-108.584837 75.346281-94.426079 108.734516-12.091497 24.512005-107.49896-92.672297-58.054155-26.878623-117.791489L896.098138 158.075534 896.098138 158.075534 896.098138 158.075534zM524.1621 584.209382c-111.089837 0-201.141344-90.057155-201.141344-201.107455 0-111.1675 90.013382-201.190766 201.141344-201.190766s201.146992 90.024678 201.146992 201.190766C725.309093 494.152227 635.290063 584.209382 524.1621 584.209382L524.1621 584.209382 524.1621 584.209382zM524.1621 256.809818c-69.472098 0-125.988516 56.560192-125.988516 126.064767 0 69.43256 56.516418 125.982868 125.988516 125.982868 69.505987 0 126.026642-56.548895 126.026642-125.982868C650.188742 313.37001 593.668088 256.809818 524.1621 256.809818L524.1621 256.809818 524.1621 256.809818zM524.1621 256.809818"  horiz-adv-x="1049" />

    
    <glyph glyph-name="shoucangqingdan" unicode="&#58904;" d="M820.905286-128c-1.929786 0-3.879332 0.060594-5.846001 0.179147-15.91514 0.978724-30.210049 5.722179-38.529865 9.946633l-238.558485 117.309938L297.742163-117.9414c-18.379734-9.198429-65.868287-18.691924-96.875278 9.098317-26.267489 20.180429-39.528349 53.97606-33.882571 87.020854l0.169927 0.920765 49.195723 252.857346L27.78546 406.209668l-0.366198 0.35566c-24.63672 23.921448-33.661271 60.408243-23.009904 92.995947 10.424798 32.365087 38.730089 56.482807 72.320228 61.67413l262.448319 47.715122 117.508845 236.612891C472.267305 876.713991 503.419195 896 538.028893 896c34.321219 0 66.202871-19.836624 81.263109-50.539328l117.446933-236.371833 262.437781-46.109381c34.078843-5.196592 61.803221-28.778187 72.470396-61.695206 10.667174-32.627222 1.69268-69.088988-22.88213-92.937987l-0.59145-0.561153L859.641961 231.971689l47.828406-253.670096c5.727448-32.885405-7.507067-66.70343-33.821977-87.052468C859.80135-121.281972 841.359705-128 820.905286-128L820.905286-128zM813.192726-44.539701c1.975891-0.771915 5.196592-1.391027 7.363485-1.476649l0.030297 0.02898 2.712239 1.946911c2.526505 1.816502 3.88987 5.05828 3.427511 8.114324l-56.019131 297.068555L991.835624 467.350308c2.124741 2.186652 2.861089 5.485072 1.883682 8.468667l-0.056642 0.175196c-1.034049 3.200943-3.689646 5.479803-6.926155 5.948748l-1.219783 0.194955L681.749902 535.507993 545.686128 809.344027c-1.384441 2.834744-4.389112 4.667053-7.657234 4.667053-3.360331 0-6.412423-1.924517-7.961522-5.017445L394.31974 535.646305 89.326547 480.218624c-3.199625-0.462358-5.901326-2.742536-6.884003-5.809118l-0.097477-0.313508c-0.968186-2.938808-0.191003-6.242497 1.98116-8.496329l221.22729-204.442759-57.794798-297.07119c-0.442599-3.179866 0.796943-6.303091 3.215433-8.028702l1.873144-1.333067c2.728046-0.085622 6.915617 0.474214 9.309079 1.200024l275.935748 134.817646L813.192726-44.539701 813.192726-44.539701zM813.192726-44.539701"  horiz-adv-x="1077" />

    
    <glyph glyph-name="tubiao" unicode="&#58905;" d="M87.865191-40.12716 87.865191 896 0 896l0-1023.978964 43.933552 0 0-0.021036 1326.442142 0 0 87.865191L87.865191-40.134809 87.865191-40.12716zM941.183544 554.659655l-180.803977 0 0-505.232975 180.803977 0L941.183544 554.659655 941.183544 554.659655zM1194.645312 808.11951l-180.803977 0 0-758.69283 180.803977 0L1194.645312 808.11951 1194.645312 808.11951zM687.723688 720.252407 506.919711 720.252407l0-670.823815 180.803977 0L687.723688 720.252407 687.723688 720.252407zM430.880798 394.129023 250.084471 394.129023l0-344.702344 180.796328 0L430.880798 394.129023 430.880798 394.129023zM430.880798 394.129023"  horiz-adv-x="1371" />

    
    <glyph glyph-name="tuichuxitong1" unicode="&#58906;" d="M1023.997-83.207l-44.79-44.79L767.808 83.342l-211.404-211.339-44.79 44.79 211.339 211.399L511.614 339.596l44.79 44.79 211.404-211.339 211.399 211.339 44.79-44.79L812.658 128.192 1023.997-83.207zM895.773 768.033 127.967 768.033l0-767.806 255.937 0 0-127.97L127.967-127.743C57.33-127.742 0-70.412 0 0.227L0 768.033C0 838.67 57.33 896 127.967 896l767.806 0c70.64 0 127.97-57.33 127.97-127.967l0-255.937-127.97 0L895.773 768.033z"  horiz-adv-x="1025" />

    
    <glyph glyph-name="juecefenxianquanjianguan" unicode="&#58907;" d="M911.498918 752.154118c-11.977206 11.112119-27.713293 17.238048-44.018586 17.238048-1.49798 0-2.980038-0.061034-4.478018-0.149931-0.891623-0.067668-11.26205-0.674025-27.501002-0.674025-26.889337 0-79.386304 1.804475-129.126139 13.936919C642.139829 798.15232 567.987831 870.827568 546.421696 885.173147 535.60015 892.393703 523.077622 896 510.55642 896c-12.5013 0-25.002599-3.606297-35.850681-10.780414-2.627104-1.762017-80.235469-84.174798-156.144178-102.693227-49.719932-12.13377-103.23855-13.936919-130.08543-13.936919-16.285391 0-26.609378 0.611664-27.629703 0.674025-1.415717 0.08757-2.8248 0.155238-4.26042 0.155238-16.326522 0-32.155487-6.152465-44.153922-17.305715C99.366889 740.005753 91.934043 723.047664 91.934043 705.312059l0-160.302432C91.934043-47.695536 482.57909-124.01954 499.143113-126.978348c3.825223-0.674025 7.609314-1.021652 11.413307-1.021652 3.803993 0 7.691577 0.347627 11.413307 1.021652 16.606481 2.958809 410.096231 79.282812 410.096231 671.987976L932.065957 705.312059C932.064631 723.067567 924.586672 740.046884 911.498918 752.154118L911.498918 752.154118 911.498918 752.154118 911.498918 752.154118zM867.481659 544.989725c0-545.857797-356.945142-608.881755-356.945142-608.881755S156.45598-0.914511 156.45598 544.989725L156.45598 705.312059c0 0 12.237262-0.871721 31.998922-0.871721 33.865758 0 90.84605 2.477173 145.452661 15.823657 89.430333 21.762504 176.627627 111.608132 176.627627 111.608132s91.058341-89.845628 180.426314-111.608132c54.653049-13.346484 110.650168-15.823657 144.541135-15.823657 19.715221 0 31.97902 0.871721 31.97902 0.871721L867.481659 544.989725 867.481659 544.989725 867.481659 544.989725 867.481659 544.989725zM711.310945 578.201361 461.142983 329.841854l-124.084222 123.192599c-15.392441 15.299563-40.410962 15.299563-55.803403 0-15.38846-15.3261-15.38846-40.1111 0-55.390761l144.757407-143.715853c1.694349-2.892468 3.784091-5.67481 6.281167-8.173212 7.935711-7.868044 18.457395-11.697247 28.868953-11.413307 10.412885-0.285266 20.913339 3.566493 28.847724 11.413307 2.524939 2.498402 4.608046 5.260842 6.302396 8.173212l270.822571 268.884087c15.41367 15.283641 15.41367 40.089871 0 55.389435C751.721907 593.506231 726.724615 593.506231 711.310945 578.201361L711.310945 578.201361 711.310945 578.201361 711.310945 578.201361zM711.310945 578.201361"  horiz-adv-x="1024" />

    
    <glyph glyph-name="juecefenxidangantongji" unicode="&#58908;" d="M92.16-63.997l839.678 0c15.55 0 28.16 12.61 28.16 28.16 0 15.55-12.61 28.16-28.16 28.16L120.32-7.677 120.32 803.84c0 15.552-12.607 28.16-28.16 28.16C76.61 832 64 819.393 64 803.84l0-839.678C64-51.388 76.607-63.997 92.16-63.997zM227.964 155.167c32.945 0 59.645 30.34 59.645 67.755 0 9.03-1.565 17.64-4.385 25.51l117.757 153.755c5.637-2.005 11.635-3.09 17.855-3.09 17.382 0 33.02 8.447 43.92 21.92l111.182-63.335c0.36-37.065 26.92-67 59.63-67 32.94 0 59.65 30.34 59.65 67.76 0 1.25-0.04 2.495-0.1 3.73l154.885 151.145c7.385-3.725 15.555-5.807 24.155-5.807 32.945 0 59.645 30.332 59.645 67.757 0 37.42-26.7 67.757-59.645 67.757-32.935 0-59.65-30.337-59.65-67.757 0-7.71 1.15-15.112 3.24-22.017l-145.01-141.837c-10.195 9.245-23.11 14.787-37.17 14.787-16.22 0-30.915-7.365-41.67-19.297l-113.57 64.602c-2.107 35.247-27.925 63.107-59.492 63.107-32.935 0-59.647-30.34-59.647-67.757 0-10.267 2.023-19.997 5.622-28.717l-115.89-151.765c-6.52 2.78-13.582 4.31-20.957 4.31-32.935 0-59.65-30.34-59.65-67.76C168.315 185.507 195.029 155.167 227.964 155.167z"  horiz-adv-x="1024" />

    
    <glyph glyph-name="juecefenxijiaotongyunshubiao" unicode="&#58909;" d="M602.356609 22.567111l301.203034 0 0 60.270712-301.203034 0L602.356609 22.567111 602.356609 22.567111zM1385.454393 896 150.592916 896C67.560483 896 0 828.497577 0 745.428588l0-572.232005c0-84.460281 46.308327-150.629472 105.411385-150.629472l75.303984 0 0 60.270712L105.411385 82.837823c-20.890894 0-45.175079 39.495939-45.175079 90.35876L60.236306 745.428588C60.236306 795.259229 100.764425 835.789498 150.592916 835.789498l1234.861477 0c49.828491 0 90.35876-40.530269 90.35876-90.36091l0-572.232005c0-48.987694-27.593613-90.35876-60.236306-90.35876l-90.35876 0 0-60.270712 90.35876 0c66.427236 0 120.470462 67.588438 120.470462 150.629472L1536.047308 745.428588C1536.047308 828.497577 1468.486825 896 1385.454393 896L1385.454393 896zM391.544591 233.407084c-99.656982 0-180.715369-81.058388-180.715369-180.668061 0-99.687087 81.058388-180.739023 180.715369-180.739023 99.64838 0 180.706768 81.049786 180.706768 180.739023C572.251359 152.348697 491.192971 233.407084 391.544591 233.407084L391.544591 233.407084zM391.544591-67.787348c-66.433687 0-120.479063 54.077632-120.479063 120.528522 0 66.420785 54.045376 120.457559 120.479063 120.457559 66.427236 0 120.470462-54.036775 120.470462-120.457559C512.015053-13.709716 457.971827-67.787348 391.544591-67.787348L391.544591-67.787348zM1114.388865 233.407084c-99.656982 0-180.715369-81.058388-180.715369-180.668061 0-99.687087 81.058388-180.739023 180.715369-180.739023 99.64838 0 180.706768 81.049786 180.706768 180.739023C1295.097783 152.348697 1214.037245 233.407084 1114.388865 233.407084L1114.388865 233.407084zM1114.388865-67.787348c-66.435837 0-120.479063 54.077632-120.479063 120.528522 0 66.420785 54.045376 120.457559 120.479063 120.457559 66.427236 0 120.470462-54.036775 120.470462-120.457559C1234.861477-13.709716 1180.816101-67.787348 1114.388865-67.787348L1114.388865-67.787348zM481.894749 775.544591 120.470462 775.544591l0-331.28248 361.424287 0L481.894749 775.544591 481.894749 775.544591zM421.658443 504.481214 180.715369 504.481214 180.715369 715.310435l240.943074 0L421.658443 504.481214 421.658443 504.481214zM960.613394 775.544591 575.427463 775.544591l0-331.28248 385.185932 0L960.613394 775.544591 960.613394 775.544591zM900.377088 504.481214 635.67022 504.481214 635.67022 715.310435l264.706869 0L900.377088 504.481214 900.377088 504.481214zM1415.576847 775.544591 1054.154709 775.544591l0-331.28248 361.422137 0L1415.576847 775.544591 1415.576847 775.544591zM1355.331939 504.481214 1114.388865 504.481214 1114.388865 715.310435l240.943074 0L1355.331939 504.481214 1355.331939 504.481214zM1355.331939 504.481214"  horiz-adv-x="1537" />

    
    <glyph glyph-name="juecefenxilianwangshoupiao" unicode="&#58910;" d="M511.996523 896C229.246363 896 0 666.753637 0 384.003477c0-282.718174 229.246363-512.002086 512.035463-512.002086s512.035463 229.283912 512.035463 512.002086C1024.031987 666.753637 794.791187 896 511.996523 896L511.996523 896zM198.231905 697.768095 198.231905 697.768095c35.925091 35.887542 77.044523 64.97307 122.334726 86.691951-32.96981-43.899482-60.453228-98.871881-80.31967-161.529401L137.95808 622.930645C155.15712 649.842476 175.307269 674.875445 198.231905 697.768095L198.231905 697.768095zM102.249941 554.681037l120.015005 0c-9.148159-43.116507-14.916868-88.972733-16.802685-136.533982L69.56801 418.147055C73.094877 465.317512 84.095476 511.031885 102.249941 554.681037L102.249941 554.681037zM69.56801 349.859898l135.894251 0c1.923366-47.566812 7.654525-93.384098 16.802685-136.535373L102.249941 213.324525C84.018987 256.969506 73.094877 302.683879 69.56801 349.859898L69.56801 349.859898zM198.231905 70.270846c-22.924636 22.860663-43.074785 47.925618-60.273825 74.799901l102.288881 0c19.866442-62.658911 47.31231-117.59237 80.31967-161.525229C275.172125 5.260226 234.08607 34.351317 198.231905 70.270846L198.231905 70.270846zM477.854336-54.72572c-15.559381 4.448915-31.008894 12.136818-46.067616 22.784173-28.341492 20.008295-55.505045 50.80441-78.46723 89.00611-15.918187 26.451503-29.586187 55.933387-41.048505 88.006182l165.583352 0L477.854336-54.72572 477.854336-54.72572zM477.854336 213.324525 292.225139 213.324525c-10.28855 43.68253-16.449442 89.43028-18.404795 136.535373l204.033991 0L477.854336 213.324525 477.854336 213.324525zM477.854336 418.147055 273.820344 418.147055c1.955353 47.09953 8.153794 92.813903 18.404795 136.533982l185.629196 0L477.854336 418.147055 477.854336 418.147055zM477.854336 622.930645 312.270984 622.930645c11.462318 32.110345 25.169259 61.485143 41.048505 88.006182 22.962186 38.310177 50.125738 69.068742 78.46723 89.00611 15.128257 10.647356 30.508235 18.301881 46.067616 22.789736L477.854336 622.930645 477.854336 622.930645zM546.140102 822.732673C561.699482 818.244818 577.148996 810.590293 592.21328 799.942937c28.33593-20.008295 55.503654-50.76686 78.46723-89.00611 15.911233-26.48349 29.584797-55.895837 41.048505-88.006182L546.140102 622.930645 546.140102 822.732673 546.140102 822.732673zM546.140102 554.681037l185.633369 0c10.251001-43.688093 16.443879-89.434452 18.404795-136.533982L546.140102 418.147055 546.140102 554.681037 546.140102 554.681037zM546.140102 349.859898l204.039554 0c-1.960916-47.105093-8.153794-92.813903-18.404795-136.535373l-185.633369 0L546.141492 349.859898 546.140102 349.859898zM592.284207-31.941546c-15.135211-10.647356-30.513798-18.335259-46.073179-22.784173l-0.070927 199.796466L711.729016 145.070746c-11.462318-32.074186-25.169259-61.517129-41.015128-88.006182C647.787861 18.791937 620.620136-12.004178 592.284207-31.941546L592.284207-31.941546zM825.800081 70.270846c-35.925091-35.919528-77.043133-65.010619-122.329163-86.723938 32.964247 43.93286 60.485215 98.866318 80.351657 161.525229l102.288881 0C868.841489 118.196464 848.724717 93.130118 825.800081 70.270846L825.800081 70.270846zM921.748668 213.324525l-120.015005 0c9.148159 43.149884 14.912696 88.968561 16.802685 136.535373l135.894251 0C950.942672 302.683879 939.942073 256.969506 921.748668 213.324525L921.748668 213.324525zM954.463976 418.147055l-135.894251 0c-1.923366 47.561249-7.654525 93.417476-16.802685 136.533982l120.015005 0C939.975451 511.031885 950.942672 465.317512 954.463976 418.147055L954.463976 418.147055zM783.790588 622.930645c-19.866442 62.65752-47.316483 117.629919-80.35722 161.529401 45.394507-21.756431 86.480562-50.80441 122.329163-86.691951C848.692731 674.875445 868.841489 649.842476 886.034966 622.930645L783.790588 622.930645 783.790588 622.930645zM783.790588 622.930645"  horiz-adv-x="1025" />

    
    <glyph glyph-name="juecefenxiweixingdingwei" unicode="&#58911;" d="M422.94358 441.327719c7.905386-11.858078 40.854144-61.936781 206.907459-299.157871l1.319173-1.319173c9.224559-11.858078 25.041765-19.769899 39.541406-19.769899 15.810771 0 31.627977 7.911821 39.533363 21.089072 71.167775 102.795752 205.593113 296.52596 210.864978 303.110564l1.312738 1.320782c27.675284 46.12601 43.49249 100.157406 43.49249 154.193628 0 162.100622-131.791818 295.205178-295.205178 295.205178C507.291823 896 375.500005 764.208182 375.500005 600.794822 375.500005 544.12508 391.317211 490.093684 422.94358 441.327719L422.94358 441.327719 422.94358 441.327719zM669.392445 820.879532c121.246478 0 220.084711-98.838233 220.084711-220.084711 0-39.539798-10.538905-77.753987-31.627977-114.65383-7.905386-11.864513-115.974612-167.374097-187.135952-270.169849-55.352177 79.07316-175.285917 251.719123-187.143995 267.529894-22.403419 34.267932-35.58067 75.122076-35.58067 115.974612C449.3013 720.722127 548.145968 820.879532 669.392445 820.879532L669.392445 820.879532zM669.392445 436.055854c89.618501 0 163.419795 73.801295 163.419795 163.419795S759.010946 762.895444 669.392445 762.895444 505.971042 689.094149 505.971042 599.475649 578.457989 436.055854 669.392445 436.055854L669.392445 436.055854zM669.392445 689.094149c48.75953 0 88.299328-39.539798 88.299328-88.299328 0-50.078703-39.539798-88.297719-88.299328-88.297719-48.765965 0-88.299328 39.533363-88.299328 88.297719C581.093118 649.554352 620.624872 689.094149 669.392445 689.094149L669.392445 689.094149zM1295.389907 52.551348 1112.200213 407.066223l-151.555282 0-59.303261-76.441249 164.732533 0 167.372488-320.246943 2.63352-2.63352c9.224559-11.858078 9.224559-27.675284 2.639955-40.854144-6.592648-13.177251-19.769899-21.089072-35.58067-21.089072L115.880323-54.198705c-15.817206 0-28.994457 7.911821-35.587105 21.089072-6.586213 14.498033-5.271866 28.994457 3.952693 42.173317l1.320782 1.312738 164.732533 321.567725 187.142387 0-61.943216 76.434814L204.174825 408.378961 20.989957 52.551348c-25.043373-35.58067-27.675284-80.387507-7.905386-117.28735 21.082637-39.539798 59.303261-63.262389 104.110099-63.262389l1087.255954 0c43.49249 0 83.025853 23.722592 102.795752 63.262389C1324.377929-26.521812 1320.425236 18.289851 1295.389907 52.551348L1295.389907 52.551348zM1295.389907 52.551348"  horiz-adv-x="1318" />

    
    </font>
</defs>
</svg>
